<svg id="Layer_1" data-name="Layer 1" xmlns="http://www.w3.org/2000/svg" viewBox="0 0 1417.32 2505.32"><defs><style>.cls-1{fill:#f8f6f3;}.cls-2{fill:#d4d4c6;}.cls-3{fill:#d2d3c5;}.cls-4{fill:#c3b29e;}.cls-5{fill:#c3b19e;}.cls-6{fill:#f8f7f2;}.cls-7{fill:#f8f6f2;}.cls-8{fill:#f7f6f2;}.cls-9{fill:#f8f7f1;}.cls-10{fill:#c2b19d;}.cls-11{fill:#d5d5c8;}.cls-12{fill:#c3b09b;}.cls-13{fill:#f0efe9;}.cls-14{fill:#c4b29e;}.cls-15{fill:#cbb9a5;}.cls-16{fill:#d7d8cb;}.cls-17{fill:#f7f6f1;}.cls-18{fill:#f8f6ef;}.cls-19{fill:#f8f5f0;}.cls-20{fill:#f8f6f0;}.cls-21{fill:#f7f6f3;}.cls-22{fill:#f8f6f1;}.cls-23{fill:#f8f7f0;}</style></defs><path class="cls-1" d="M1013.84,2540.55H218.17c-7.75-13-9.72-27.83-12.32-42.13-6.84-37.7-5.5-75.41,1.34-113.22,3.89-21.49,17.26-36,31.81-49.66,28.11-26.37,61.65-44.69,97.28-58.35,25.77-9.88,51-3.69,73.25,11.94,36.93,25.93,75.64,49,114.14,72.45a76.13,76.13,0,0,0,42.51,10.83c30.16-1.09,54.5,11.61,76.25,30.88,5.8,5.13,12.18,9.57,17.66,15.1,1.57,1.58,3.44,4.43,6.15,2.51,2.26-1.59,1.5-4.54,1-6.91-.82-4.14-.83-8.47-2.38-12.44-7.27-18.52-9.48-38.23-13.5-57.51-7.3-35-26.65-59.87-60.2-73.29s-68.75-21.45-104.08-27c-28.82-4.52-58.22-.7-86.39,9.16-35.91,12.58-71.73,25.22-105.34,43.42-27.16,14.7-52.31,31.84-72.11,55.95-1.78,2.16-3.64,5.3-6.71,3.6s-.87-5.32-.27-7.67c4-15.46,11.37-29.5,18.23-43.8,16.75-34.91,34.73-69.15,54.62-102.37,6-10,14.09-17.73,23.57-25.06,20.76-16,44.26-27.42,65.78-41.92,14.41-9.72,29.32-11.66,45.66-12.53,29.21-1.57,56.82,4.84,83.56,15.26,37.89,14.75,75.72,12.6,114,2.29,20.06-5.4,40-11,59.76-17.54,8-2.66,16.3-4.79,25.25-2.79-13-11.6-27.2-21.66-40.22-33.11-8.18-7.2-16.68-14.05-24.84-21.29-29.76-26.42-64.51-34.28-103.13-28-23.5,3.85-43.44,16.22-63.73,27.4-12.65,7-27,10.21-38.81,19A113.12,113.12,0,0,0,414.47,2104c-14.63,18.42-33.42,31.15-53.87,41.75-15.06,7.82-29,17.19-42.59,27.3-1.94,1.45-3.9,5.43-6.85,2.47-2.54-2.55.3-5.1,1.86-7.37,14.6-21.11,30.07-41.6,44.35-63,21.27-31.81,40.06-64.78,49-102.36,5.94-24.85,7.22-49.86,2.84-75.37a505.89,505.89,0,0,0-35.85-119c-11.49-26-26.87-49.61-48.62-68.39-12.81-11.07-28.31-17.61-44.54-21-20.49-4.3-38.74-14.92-59.29-19-35.11-6.88-70.21-9.52-106-6.11-18.87,1.79-37.92,1.83-56.72,4.76-3.48.55-7,.63-10.43,4.55,22,13.53,35.1,36.78,58.9,48.83,26,13.19,41.23,37.72,55.36,62.39,15.75,27.52,27.44,57.2,44,84.26,13.62,22.28,28.73,43.39,52.15,57,18.85,10.94,39.86,13.15,60.63,16.81,21.17,3.73,42.47,7.3,59.86,21.68,4.38,3.62,8.71,7.26,12,11.9,7.06,10.06,9.52,20,4.07,32.54-13.31,30.59-31.43,58.22-50.32,85.37-29.92,43-63,83.93-85.23,131.87a40.33,40.33,0,0,1-2.73,4.53c-.92,1.44-1.82,3.32-4,2.43a3.55,3.55,0,0,1-1.89-4.46c1.58-5.16,1-10.51,1.73-15.71,2.67-18.48,2.46-37.15,4-55.7,1.46-17.74-4.6-33.24-14.43-47.46-4.76-6.9-6.35-13.57-6.11-22.42.67-24.84,4.13-50.09-4.91-74.4-5.24-14.09-13.35-26.16-23.43-37.3-22.27-24.63-48.28-43.91-77.92-58.87-16.52-8.34-29.66-21.37-41.08-36-21.5-27.47-39.61-57.37-62-86.42,9.68,35.57,7.54,70.92,12.51,105.5a132.54,132.54,0,0,0,2.46,13.49c5,19.76,11.05,39.07,11.35,59.93.28,19.09,14.5,31.82,26.88,44,14.26,14,31,25.33,47.68,36.54,11.38,7.65,24.54,10.48,37.09,15,10.93,3.94,21.9,7.92,33.09,11,39.48,10.86,62.89,43.1,58.5,87.19-2.09,21-2.47,42-5.44,63-2.57,18.17-10.89,33.3-18.28,49.16-24.59,52.75-34.66,107.9-29.36,166,1.76,19.35,6.05,38,10.81,56.62.73,2.86,3,5.92.21,9H190.66A394.71,394.71,0,0,1,129,2487.9a22,22,0,0,1-6.18-13.21c-1-11.89-5.45-22.54-11.12-32.78a238,238,0,0,1-28.11-88c-1.68-13.95-7.52-27.1-12.57-40.27-10.63-27.74-20.18-55.91-18.37-86.09.82-13.63.73-27.44,3.45-41,.69-3.45.51-6.95-.49-11.75-11,9.3-17.78,20.72-25.65,31.15-8.52,11.29-15.35,23.61-21.48,36.35-1.69,3.53-2.68,8.35-8.27,8.18V878.8c5.9-1.24,9.05,3.43,12.56,6.43,37.52,32,73.43,65.81,106.33,102.51,16.85,18.8,34.22,37.31,48.88,58.11,14.43,20.47,22,43.92,31,66.78,10.42,26.68,13.2,54.66,10.51,82.92-1.75,18.45-6.92,36.49-8.49,55-.25,3.05-2.53,4.89-4.66,6.79-6.59,5.87-12.51,12.42-18.87,18.53-5.51,5.3-9.86,11.84-10.83,19-3.17,23.62-16.35,41.57-31.09,58.88-13.73,16.12-22.81,34-20.09,55.94,1.48,11.89,5,23.49,8.76,34.76,4.86,14.54,4.53,28.74,1.55,43.78,30.21-20.77,61.09-40.09,85.15-67.71,15-17.18,21.26-38.47,25.64-60.56,4.43-22.36-.92-42.56-10.92-62.12-7.2-14.09-13.13-28.76-21.89-42.16-6.29-9.62-1-20.77,1-30.79,6.74-33.15,8.27-66-1.37-98.87-3.86-13.16-8.89-25.88-14-38.6-1.15-2.89-4.44-7.23-.18-9.29,3.79-1.83,5.77,3,7.72,5.61,17.7,24.12,34.28,49,50.53,74.13a533.19,533.19,0,0,0,63.8,81c28.59,29.66,47.45,65.94,57.12,106.75,5.9,24.93,3.3,46.75-13.83,66.79a287.23,287.23,0,0,0-27,37.68c-11,18.22-16.21,38.66-17,59.35-.64,17.15,7.33,32.76,19.47,45.54,12.36,13,26.12,24.72,37,39.21,11,14.72,15.59,30.83,14,49.44-1.72,20,5.61,37.72,17.27,54,10.73,15,23.73,27.93,36.1,41.37,15,16.27,25.19,34.46,28.75,57.88,13.75-19.49,22.89-39.73,31.13-60.14,6.29-15.58,15.38-30.1,18-47.27a146.71,146.71,0,0,0-4.43-63.7c-4.89-16.72-8.35-33.11-5.14-50.86,3-16.72.57-32.85-12.06-46.17-5.79-6.09-10.18-13.48-16.27-19.4a11.87,11.87,0,0,1-2.06-2.56c-9.16-15.47-20.5-29.44-31-44-16.26-22.53-32.3-45.39-51.75-65.32-12.36-12.68-17.75-26.69-20.15-44.44-4.74-35.05-21-66.08-41.69-94.66-1.5-2.06-5.46-4.26-2.9-7,2.8-2.94,5.72.55,8.23,2.18,31.43,20.38,64.44,37.11,100.69,47.6,23.9,6.91,38.84,25.33,51.92,45.65,14.72,22.88,16.48,49.23,20.79,74.7,10.59,62.51,72.92,115.91,136,110.45,8.08-.7,15-4.28,21.48-8.24,14.2-8.77,28.72-16.18,45.15-19.94a86.47,86.47,0,0,0,29.77-13.27c6.08-4.19,9.93-9.7,12.93-15.85-.85-1.09-1.5-1.36-2.19-1-22.19,11.44-44.41,3.73-54.21-25.65-8.72-26.11-28.8-38.34-51.92-47-18.17-6.85-37.68-8.12-57.05-9.39-24.7-1.63-48.87-6.13-71.57-16.52a61.33,61.33,0,0,1-27.08-24.48c-7.15-11.85-14.61-23.23-25.18-32.3-1.56-1.35-3.84-2.81-2.82-5.07,1.28-2.8,4-2,6.47-1.41,9.57,2.11,19.16,4,28.8,5.82a97.48,97.48,0,0,0,49.92-3.81,63.21,63.21,0,0,1,40.29-.75c26.28,7.88,51.21,5.34,75.38-8,20.94-11.54,37.08-28,50-47.58,21.41-32.67,36.29-68.32,45.45-106.28a44,44,0,0,0-2.39-29c-12.34-27.57-18.55-56.87-23.65-86.4-5.44-31.52-13.78-61.83-33.76-88.27,6.47,40.82-10.31,73-36.46,102.14-19.34,21.57-44.69,35.28-66.87,53.09-19.91,16-30.63,35.9-31.17,61.72-.55,26.16,2,51.93,5.61,77.8,3.11,22.56-1.64,44.17-13.61,63.89-2.9,4.78-7.05,7.12-12.51,8.73-22.41,6.61-44.51,4.15-66.57-1.25-47.41-11.59-92.24-29.52-134.09-54.79-34.54-20.85-59.9-50.42-81.68-83.84-22.47-34.46-44.36-69.33-70-101.65-17.05-21.48-32.86-43.87-51-64.57C106.11,973,73.09,938.51,37,907c-4.77-4.17-9.07-8.87-14.17-12.69-2.26-1.69-5.16-3.88-3-6.8s5.37-1,7.69.44C41,896.2,55.2,903.28,69.32,910.45c27,13.68,53.36,28.56,82.07,38.49,14.32,5,29,8.1,44.24,8.16,11.9.06,22.66,4,33.47,8.53,26.6,11.17,52.16,24.57,79.57,34.09,36.13,12.56,71.88,16.13,108.53,3.56,24.64-8.45,50.47-12.66,75.18-20.95,7.81-2.62,14.57-7.38,17.77-14.2,10.39-22.11,27.9-38.76,42.2-57.86.84-1.12,2-2,2.78-3.17,3.44-5.53,11-10.33,8.5-17.16-2.7-7.44-11.19-3.31-17.07-4.15-15.67-2.23-31.19-5.29-46.81-7.74-25.41-4-50.8-7-76.39-.79-22.28,5.4-41.83,16.29-60.8,28.63s-37.63,24.68-57.9,34.8-41.89,14.56-64,17C192,963.18,147.08,951,104.07,928.36,72.66,911.83,41.29,895.18,9.66,879c-3.46-1.76-6.94-3.48-9.46-6.59V616.31c5.84-.13,7,5,9.51,8.54C19,637.62,28,650.58,41.11,660.09c17.43,12.63,37.48,15.59,58,16.7,14.75.8,29.51,0,44.28,2.05,16.48,2.28,31.64,6.75,43.56,18.35-8.51-27.23-17.4-54.66-26.28-82.1-9.3-28.77-21.7-55.86-39.93-79.87-8.92-11.76-21.06-20.92-33.28-29.16-15.17-10.22-31.12-19.25-48.36-25.93-9.86-3.82-20.33-1.53-30.16-4.59-3-.92-6.32-.69-8.73-3.18V423.67c1.33-1.17,2.59-2.64,4.25-3.1,23.3-6.36,45.91-16.3,70.81-14.75,38.39,2.37,76.08,8.51,112.06,22.75,23.07,9.13,44.12,21.91,63.78,36.88,9.64,7.34,10.85,19.48,14.26,30,6.84,21.12,9.46,43.29,15,64.76,8.11,31.57,23.66,58.68,48.72,79.69,14.43,12.1,32.52,14.4,50.55,15.71,20.08,1.46,40-2.63,60.1-2.26,24.28.46,45.5,6.68,63.19,24.33,16.37,16.33,34.86,29.59,58.86,32.64,17.16,2.17,34.35,2.65,51.62,2.62,18.32,0,36.68-1.24,55,.76,19.28,2.12,36.51,9.65,53.07,22.06-5.07-23.7-13.22-44.94-22.8-65.56-11.85-25.48-21.19-52.21-38.47-75-11.34-15-26.25-25.41-41.55-35.37a234.18,234.18,0,0,0-33.44-18.08c-16.59-7.31-29.15-19.28-40.31-33.26-12.8-16-29.82-23.86-50.37-24.76-41.44-1.81-82.62-6.51-123.72-12a247.55,247.55,0,0,0-29.39-2.21c-20.09-.25-40.33-4.85-60-2.07-18.93,2.68-32.53-3.69-47.3-13.81-42.2-28.87-89.8-42.51-140.56-46-4.31-.29-11.6.73-11.91-3.76-.4-5.7,7.13-5.15,11.51-6.38,33.86-9.5,69.12-14,101.81-27.57,49.21-20.44,97.68-13.76,146.1,2.73,7.95,2.71,16.13,4.64,24.67,3.92,4.72-.4,9.06,1.08,13.35,2.71,28,10.61,56.1,20.9,86.21,23.72,20.54,1.92,39.91-1.67,57.19-13.69a13.78,13.78,0,0,1,2.93-1.69C546,377.6,567.68,375.8,590,380.91c.68-5.61-1.88-8.06-5.13-9.5C553.73,357.55,523,342.34,490,333.32c-24.17-6.6-46.92-.45-67.72,12.23-11.39,6.94-22.71,14.11-33.65,21.85-13.7,9.7-29.21,12.23-45.07,6.09A228,228,0,0,0,249.63,358a10,10,0,0,1-2.12,0c-3.57-.55-8.91,1.75-10-3.15-1-4.33,3.91-6.11,7.24-8,11.3-6.5,22-13.91,33-20.88,14.51-9.2,31.72-11.35,48.18-14.94,40.56-8.85,81.66-15.93,120.55-30.81,35.74-13.68,69-32.05,95.52-60.66,20.9-22.56,37.1-48.65,54.83-73.57,11-15.51,22.66-30.49,34.75-45.15,15-18.19,18.92-38.87,13.37-61.49-2-8.24-2.62-16.67-4-25-.78-4.74-1.3-9.94,2.56-14.07h93.11C741.07,7.62,742,16.2,745.15,24c14.35,35.4,38.75,59.87,76.13,70.15,19,5.23,39,5.95,57.86,11.48,22.1,6.5,43.7,5.65,65.47.4,23.69-5.71,46.95-1,70.21,2.35,10.94,1.56,21.79.68,32.67,1.2,3.16.16,6.37-.19,9.43.85,1.32.45,2.8,1,3.18,2.52.54,2.15-1,3.23-2.63,3.89a156,156,0,0,1-17.83,6.35c-41,11.46-81.79,23.66-119.41,44.08-24.93,13.53-47.73,30.48-65.3,52.81-13.23,16.84-23.13,36.21-31.07,56.23-9.09,22.88-18.29,45.78-24.63,69.64-8.3,31.27-11.92,63-6.37,95.1,2.24,13,8.46,24.52,16.41,35.12,14,18.57,25.61,38.78,39.76,57.19,21.08,27.43,48.17,48.34,76.84,67,15,9.8,29.4,20.69,45.59,28.68,4.11,2,8,4.33,14.41,3.11C975.52,609.77,980.05,584.55,969,562c-11.37-23.07-10.28-48.56-7.56-73.67,3.68-34,14.72-66.73,17.05-100.82,1.92-28,3.85-56.5-11.38-82.34-10.66-18.07-25.61-32.6-39.83-47.68-12.26-13-22.2-27-26.65-44.74-5.35-21.36.1-35.19,19.46-45.45,36.89-19.54,76.59-31.51,116.37-43.35a735.2,735.2,0,0,0,100.74-37.67c4.89-2.28,11.84-7.8,15.25-3.06,3.89,5.41-4.68,8.8-8,12.83-15,18.11-32.76,33.93-44.05,55-5.39,10-9.27,20.51-8.19,32.17.68,7.24-2.15,12.58-7,17.9A310.64,310.64,0,0,0,1055,239.17c-10,15-14.42,31.33-15.32,49.57-1.94,39.32,9.77,74.91,26,109.71,6.92,14.8,10.12,30.35,10.52,47,.84,34.55-3.18,68.95-1.71,103.7,10.64-27.89,30.13-50.37,45-75.62,8-13.63,16.43-27.1,21-42.48a75.54,75.54,0,0,1,13.46-26.15c14.08-17.4,12.11-37.47,8.59-57.48-6.69-38-19.86-73.2-45.12-103.22-8.4-10-14.84-21.54-20.28-33.34-11.07-24-6.61-47.5,8-67.89,17.76-24.86,38-48,61.35-68,13-11.16,29.45-16.39,44.19-24.55,16.47-9.12,31.07-20.5,45.15-32.73,7.16-6.23,14.19-12.61,22.47-17.39h95.22c1.67,1.75,1.56,3.81,1.07,5.94-8.39,37.09-16.25,74.36-36.16,107.57-6.06,10.11-9.6,21.37-12,32.61-8.43,38.78-27.71,71.2-55.43,99-5.23,5.26-9.57,11.18-15,19.2,14-.7,25.45-4.8,36.89-8.3,32.75-10,61.81-26.9,88.69-47.95,9.1-7.13,16.49-15.31,21.44-25.67a325.28,325.28,0,0,1,16.26-29.66c3.65-5.94,5.34-5.81,8.28-.52q0,436.34,0,872.57c-1.4,9.63-5.19,2.57-6.67.49-5.69-8-10.65-16.62-17.45-23.82-26.26-27.79-32.3-63.06-37.13-98.93-1.65-12.21-2.9-24.31-.22-37.79a27.21,27.21,0,0,0-15,10.39c-9.94,13.19-14.11,28.52-14.24,44.46-.15,18.19-7.9,33.19-15.94,48.51-8.18,15.56-17.95,30.24-25,46.46-13.81,32-12.58,62.6,6.35,92.35,21.56,33.88,39.73,69.61,57.23,105.72,7.34,15.15,14.24,30.68,25.3,43.77,2,2.42,3.76,5.33,6.44,6.92,10,5.93,14,15,15.58,26.11,3.8,25.85,11.71,50.63,20.68,75.1.09,6.87,0,13.74,0,20.6a10.28,10.28,0,0,1-.42,3.31c-5.37,1.28-8.34-3.11-11.67-5.63-46.73-35.26-96.41-66-147.12-95-27.48-15.73-56.1-29.36-84.44-43.5-32.57-16.26-63.84-35-89.19-61.43a415.42,415.42,0,0,1-83-125.12c-11.47-26.82-24.07-53.18-29.83-82-3.34-16.73-2.8-33.49.46-50.2.89-4.58,4.11-7.25,7.56-9.75A117.51,117.51,0,0,1,1057.78,893c13-.27,26,.9,39,1.32,29.15,1,58.64.41,85.83-12.54,18.48-8.8,30.08-24.74,41-41.48,14.64-22.39,24.32-47.75,41.56-68.55,23.57-28.46,50.45-51.87,87.59-61,10.81-2.66,21.65-1.17,34.21-2.51A218.3,218.3,0,0,0,1318,684.81c-27.77-4.49-55.9-5.73-83.82-8.83-16.36-1.82-32.83-4.87-48.33-10.75-18.57-7.05-35.66-6-53.82,2.71-29.85,14.35-59.76,28.31-87.18,47.11-35.68,24.46-62.85,55.08-73.46,98.28-5.33,21.68-3.8,42.75,5.54,62.86,7.9,17,9.51,33.89,5.24,52.26-5.87,25.28-2,50.13,6.73,74.42,9.15,25.56,20.16,50.3,32,74.71,1.54,3.18,4.9,7.4.75,10.41-3.28,2.38-6.37-1-9.21-3.09a86.38,86.38,0,0,0-20.23-11.29c-22.4-8.8-36.5-25.75-46.26-46.87-11.49-24.86-16-51.68-21.76-78.19a340.13,340.13,0,0,0-11-40.72c-12.13-34.75-34.31-58.19-71.23-66.63-18-4.09-29.64-15.36-33.19-34.26-1.66-8.85,1.91-16.56,4-24.8-13.12,5.42-22.29,17.24-26.94,37.44-6.16,26.78-11.23,53.81-24.09,78.49-2.7,5.17-2.82,10.72-3.3,16.39-2,23.73,6.92,44.74,18.25,64.12,20.4,34.91,50.22,59.65,89,72.41,19.49,6.42,39.77,9.07,60.28,9,28,0,54.42,5.71,78.84,20,16.44,9.65,29.82,22.07,39.57,38.55a319.89,319.89,0,0,0,69.25,81.81c24.28,20.49,52.38,35.39,80.86,49.49,38.48,19,76.94,38.21,113.1,61.55,1.48,1,3.16,1.59,4.56,2.67s2.85,2.52,2,4.4-2.86,1.69-4.58,1.06c-6.27-2.32-12.76-4-19-6.2-29.65-10.52-59.92-17.74-91.61-17.57-24.87.13-48.6,6.28-72,13.84-3,1-6,2-9,2.9-13.8,4.18-26.11,3.88-40.22-3.07-25.86-12.72-53.71-21.53-82.61-24.65-15.25-1.65-29.56,5.35-44,9.71-39,11.79-63.6,40.3-83.76,73.47-13,21.36-24.58,43.54-37.2,66.19,20.32-9.07,40.56-6.54,60.79-2.78,15.29,2.85,30.71,4.83,46.18,2.79,20-2.64,34.38-15.13,47.68-29.12,17.15-18,35.63-34.29,60.24-41.25,15.62-4.41,26.35-14.54,34.39-27.83,7.49-12.36,16.9-19.64,32.07-22.32,22.3-4,43.48-13,66.21-16.28,27.08-3.92,53.28,0,79.39,5.9,21.61,4.87,42.08,13.63,63.36,19.65,15.26,4.31,27.7,13.66,40.71,22,20.13,13,39.44,27.07,58.6,41.39,3.53,2.64,8,4.85,7.89,10.45q0,232.44,0,464.79c.35,4.89-3.31,6.31-6.79,8.25-17.44,9.76-35.68,9-54.27,4.53-27.25-6.5-53.63-16.22-81.42-20.93-26.38-4.47-36.07-15.61-41.41-42.32-2.63-13.15-4.67-26-2.45-39.66,3.56-21.86-8.56-39.36-19-56.83-14.32-23.82-33.25-44.62-46-69.54-3.65-7.16-5.35-15.25-10.72-22.77-5.5,6-6.81,12.74-6.73,19.69.2,19.61-3.7,38.38-9.47,57-3.35,10.81-2.62,22.68-.63,33.59,2.52,13.82,5.15,27.66,7.72,41.49a41.83,41.83,0,0,0,16.17,26.38,167.85,167.85,0,0,1,23.87,22.4c12.66,14.41,27.61,22.68,47.18,24.55,39.91,3.82,78.71,13.49,116.94,25.43,5,1.56,10,3.31,15.43,3.08,3.64-.16,7.54.88,8.15,5.07.56,3.79-3,5.36-6,6.37-17.34,5.83-33.37,14.72-50.54,21.11s-33.43,14.82-50,22.5c-11.71,5.42-23,12-36.13,14.11-23.87,3.91-46.31-.12-64.05-16.49-21.16-19.52-42.14-39.5-57.76-64.3-12.89-20.48-21.32-42.64-21.47-66.49-.29-44.16-12.68-84.44-33-123.07-5.9-11.23-12.42-22.08-18.19-33.36-7-13.65-17.93-22.15-32.46-26.69-16.37-5.11-26.69-16-31.47-32.74-2.84-9.94.1-18.75,2.69-27.89.94-3.3,3.76-5.92,3.5-10.34-6.37,1.12-11.06,4.54-15.32,8.71-15.37,15.06-24,34.08-28.7,54.4-4,17.39-13.22,31.77-22,46.54-7,11.88-13.56,23.7-14.93,37.84-1.11,11.45.05,22.67,4.67,33a346,346,0,0,0,65.52,97.83c25.1,26.25,56.76,39.6,92.41,44.51,8.69,1.19,17.38,2.64,26,4.09,21,3.53,37.9,13.4,52.15,29.5,12.75,14.39,25.11,29.6,43.21,38.32,8,3.86,15.84,7.3,24.91,7.3,2.92,0,7.24-1.13,7.84,3.09.47,3.33-3.48,3.89-6,4.81-17.62,6.36-36,9.5-54.53,10.86-12.56.92-25.11,2.13-37.76,2.62-61,2.33-117.13-12.61-168.61-45.29-30.61-19.42-59.35-41.67-90.48-60.29-25.31-15.15-52.23-26.38-81.93-29-15.19-1.34-30.15,1.8-44.92,5.09-26.08,5.81-51.7,13.55-78.45,16.55a158.41,158.41,0,0,1-48.28-1.86,182.26,182.26,0,0,0-20.61-2.32,63.39,63.39,0,0,0,8.08,16.79c15.4,24,33.45,46.14,48.43,70.44,7.22,11.7,13.77,23.78,20.52,35.71,8.39,14.83,20.53,24.89,36.55,28.19,39.43,8.11,77.08,22.06,115.47,33.55,50.31,15.06,99.92,12.46,149.61-2.85,26.38-8.13,50.88-20.45,76-31.59,22.83-10.14,45.21-21.27,68.38-30.66a38,38,0,0,1,15.49-2.74c14.07.34,28-1.69,41.81-3.75,3.13-.47,7-1.49,8.71,1.7,2,3.89-2.47,5.34-4.67,6.91-8.3,5.9-16.46,11.94-24.51,18.21-18.68,14.54-32.59,33-45.25,52.48-10.94,16.84-25.78,24.48-45.91,25-20,.51-39.91,2.39-59.39,8-23.45,6.77-38,23.53-49.65,43.22q-17,28.58-33,57.75c-3.82,6.94-8,14.2-6.36,24.54,8.76-7.58,15.59-15.9,24.54-21.67,9.32-6,19.26-11,30.24-11.73,32.79-2,56.33-19.89,76.66-43.44,13.6-15.76,24.67-33.34,35.19-51.26,1.43-2.44,2.75-5.21,5-6.76,18.88-13,28.43-33.76,42.43-50.77,12.26-14.9,27.52-25.94,41.91-38.27,22-18.87,50.2-22.63,75.86-32.42,11.15-4.25,22.13-8.82,32.84-13.9,15-7.08,30.56-12.71,45.06-20.75,2.75-1.53,6.56-3.5,8.75-.56,3,4.08-1.88,6-4,8.24-17.33,17.54-34.61,34.95-49.36,55a243.21,243.21,0,0,0-37.9,76.12c-3.27,11-9,19.32-18.45,26-28.82,20.31-55.22,43.51-81,67.58-31.38,29.3-61.24,60.26-94.78,87.25-12.81,10.3-16.28,25.37-17.08,40.67-1.12,21.35-5,41.17-15.7,60.46-13.12,23.73-22.08,49.6-24.47,77-1.89,21.77,5.06,42.49,9,63.51,3.75,20.07,9.71,39.65,15.41,59.26C1014.84,2533.77,1016.59,2537.22,1013.84,2540.55Z"/><path class="cls-1" d="M1426.49,2540.55H1039.23c-3.25-5.16.49-8.62,3.11-12.21,15.44-21.1,36.37-36,57.18-51.17,19.59-14.29,39.38-28.47,51.82-50.35,6.41-11.26,10.75-23.3,11.69-35.86,2.22-29.44,17.07-50.25,40.23-67.19,15-11,30.7-21.07,45.54-32.41,29.77-22.76,36.58-52.68,34.27-87.85-2.14-32.52-17.76-59.72-30.51-88.19-4.18-9.33-8.07-18.78-12-28.2-4.88-11.63-6-23.22-1.73-35.89,11.82-35.47,28.75-67.75,53.24-96.25,14.5-16.88,30.32-32.23,46.83-47a78.51,78.51,0,0,1,23.2-14.35c18.57-7.5,36.75-16,55.46-23.12,3-1.15,7.78-5.84,10,1.54,0,17.5,0,35,0,52.45-11.38,14.31-20,30.24-28.06,46.61a169.86,169.86,0,0,0-18,73.16c-.26,18.15,3.46,36.32,8.35,54,8.74,31.63,21.15,62,31.84,92.95,3,8.81,4.63,17.64,5.89,26.72q0,155.58-.06,311.13C1427.47,2532.93,1428.45,2536.88,1426.49,2540.55Z"/><path class="cls-1" d="M.2,419.44Q.2,215,0,10.59C0,2.56.84-.13,10,0,54.68.64,99.39.29,144.1.29c2.76,2.77,2.7,6.31,2.89,9.86a354.83,354.83,0,0,0,27,117.7c8.29,19.87,22.32,36.63,33.22,55.13,16.24,27.57,20.07,57.53,17.3,88.64-1.24,14-1.85,28.07-4,42-6.91,43.52-29,61.29-72.18,71.81-24.52,6-49.35,10.54-73.6,17.74-15.47,4.58-31.65,6.57-47.15,11.26-2.11.64-4.45.48-5.79-1.43-1.46-2.08-.1-4.05,1.34-5.63,30.27-33.3,53.57-72.57,87.27-102.86,16-14.35,26-30.83,27.42-52.66.74-11.15,2.9-22.27,5.18-33.32,4-19.45-6.31-35.37-13.62-52.09-10.19-23.28-25.66-41.8-47-55.57C72.15,104.23,65.91,93.59,57.5,85.13,52.76,80.36,48,75.94,42.21,72.88c-3.4,2.61-1.27,5-.72,7a241.09,241.09,0,0,1,8.41,61.54c.08,22.45.93,45,5.89,67.12A62.94,62.94,0,0,0,72.2,238.82c16,16.77,26.26,36.44,29.75,59.53,1.29,8.52-.3,15.4-6.7,22.06C76,340.47,57.89,361.58,42.74,385.05c-7.54,11.68-17.94,20.77-28.26,29.81C10.59,418.27,6.16,421.7.2,419.44Z"/><path class="cls-1" d="M1032.88,2540.55h-8.46a13,13,0,0,1-4.87-10.13c-1-25.41-.13-50.72,5.52-75.6,7.63-33.6,20.31-65.13,40.25-93.44,8.5-12.08,17.23-24,27.84-34.43,7.53-7.39,15.52-14.38,22-22.83a12.26,12.26,0,0,1,2.22-2.44c38.21-31.32,69.41-68,86-115.34,11.18-31.93,17.22-65.31,25.38-98.09.5-2.05.53-4.23,1.39-6.18,1-2.23,1.94-4.91,4.84-5,3.13-.05,3.8,3,4.54,5.15,9.85,28.68,26.27,54.55,36.2,83.11,9.83,28.28,12.35,57.44,3.83,86.8-4.87,16.79-17.33,27.76-29.68,38.92-17,15.38-37.62,25.74-55.34,40.33-18.1,14.9-27.68,33.34-30.23,55.71-3.28,28.82-16.57,51.48-38.34,70.2-24,20.63-52.06,36.05-73.84,59.47C1045.06,2524.32,1040.56,2533.69,1032.88,2540.55Z"/><path class="cls-1" d="M304.93.29H478.45c.94,3.58-1.9,5.13-4,6.74-27.38,21-41.69,50.73-53.82,81.74-11.53,29.49-20.06,60-30.64,89.88-18.39,51.89-47.72,96.15-90.62,131.15-28.46,23.22-59,43-92.94,57.21a23,23,0,0,1-5,1.71c-2,.34-4.23,2-5.92,0-2.18-2.52,0-4.57,1.53-6.39,8.53-10,15.93-20.47,19.25-33.52a188.32,188.32,0,0,0,5.77-42.67c.46-22.13,9.35-39.75,23.48-56,12.68-14.59,26.63-28,38.33-43.52,16-21.14,23.17-45.45,26.58-71.24,4.77-36,1.82-71.53-5.9-106.82C304,5.81,303.37,3,304.93.29Z"/><path class="cls-2" d="M1032.88,2540.55c7.25-18,21.45-30.3,35.83-42,17.94-14.62,37.39-27.42,55.15-42.24,22.05-18.42,35.43-41.69,38.49-71.23,2.75-26.49,17.2-46.69,39-62.31,20.18-14.49,42.07-26.6,59.62-44.87,18.73-19.5,22.15-42.79,21.18-68.12-1.38-35.57-17.25-66.14-32.5-96.94a225.9,225.9,0,0,1-14.09-35.54c-5.2,9-5.59,17.78-7.53,25.92-6.6,27.64-12.07,55.6-21.59,82.4-10.53,29.62-25.85,56.5-47.31,79.94-10.24,11.18-21.31,21.36-32.21,31.78-2.72,2.61-4.83,6.29-9.38,6.16-3.18-6.68,2.63-9.57,6-13.11,15.17-16.17,31.74-30.89,45.49-48.57,16.83-21.66,27.06-46.34,35-71.87,8.66-27.9,14.22-56.72,20.74-85.24.39-1.68.95-3.43-1-6.16-12.69,8.8-24.25,19-35.94,28.88-40.06,34-77.63,70.66-115.61,106.89-6.62,6.33-13.58,12.37-20.69,18.07-12.07,9.68-16.3,22.54-17.62,37a115.16,115.16,0,0,0-.91,12.63c.42,22.55-9.85,41.57-19.66,60.69a192.26,192.26,0,0,0-16.83,47.7c-2.84,13.2-3.83,26.36-1.22,39.86,5.5,28.38,10.2,56.92,19.11,84.53,1,3.19,1.84,6.46,1.68,8.5-3.9-36.66,3.26-73,16.59-108.38,8.36-22.22,19-43.25,33-62.43,12.5-17.12,27.23-32.31,42.71-46.75,2.49-2.31,5.33-5,9.28-2.3.09,4.54-3.48,6.77-6.22,9.33-23,21.47-43.21,45.3-57.87,73.2-15.09,28.72-25.33,59.14-29.25,91.66-1.86,15.46-1.66,30.84-1.94,46.28a56,56,0,0,0,2.14,16.65h-10.58A797.24,797.24,0,0,1,987,2428c-3.76-22.59,2.85-44.6,10.14-66.06,6-17.69,15.17-33.92,23-50.74,4.76-10.22,6.27-21.33,5.85-31.81-1.16-29.13,12.37-49.28,34.48-66a320.73,320.73,0,0,0,32.41-28.59q46.08-45.76,95.24-88.2a324.41,324.41,0,0,1,33.81-25.14c8.53-5.64,13.35-13,16-22.58,9.59-35.18,27.65-65.75,50.75-93.72,13.18-16,28.51-29.77,42.27-45.73-11.09,5-22.27,9.81-33.26,15-30.74,14.63-62,27.81-95,36.5-16.6,4.36-29.5,16.19-42.8,26.37-20.54,15.72-37,35.39-50.6,57.44a10.24,10.24,0,0,1-1.69,2.66c-22.73,18.74-34.59,45.71-52,68.49-16.85,22.07-36.34,40.91-63.45,50.24-9.78,3.37-20.1,2.85-29.95,5.32-20.88,5.24-35.23,19.68-48.83,35.2-5.19-8.26-5.09-14.84,2.73-29,12.22-22.12,25.21-43.8,37.85-65.68,18.65-32.27,48.53-43.66,83.78-45.89,13.6-.86,27.33-1,40.79-3.86,10.14-2.18,18.71-7.41,23.93-16a238.35,238.35,0,0,1,76.73-78.45c.78-.5,1.31-1.4,2.77-3-33.29,3.33-64.93,5.32-95.3,20.48-48.6,24.25-97.3,49.63-151.76,58.84-36,6.09-72,5.16-107.54-5-40.1-11.39-79-26.89-120.15-34.77-24.46-4.69-37.22-23.87-47.7-44.36-11.9-23.26-27.27-44.17-42.24-65.43-10.61-15.08-22-29.9-29.65-48.37,11.06,0,21.16,2.28,31.26,4.14,27.25,5,53.84.47,80.26-5.53,23.59-5.36,46.75-12.85,71-15,22.54-2,43.95,3.58,64.56,12,31.2,12.66,58.22,32.41,85.69,51.44,39.58,27.4,79.59,54,128.1,63.71,35.37,7.1,70.75,9.71,106.81,6.1,23.14-2.31,45.81-5.57,67.83-14.2-26.14.21-44-14.58-61.3-31.56-13.87-13.63-25.16-30.21-44.6-37.85-17.63-6.93-36.17-9-54.4-11.56-44-6.07-76.45-29.92-103.41-63.13-17.76-21.88-32.39-45.77-45.24-70.91-13.36-26.14-13-52.28,2.93-75.8,15.09-22.33,23.66-46.75,32-71.66,5.27-15.68,14.76-28.65,26.84-39.75,5.33-4.9,11.87-6.92,20.09-7.39-3.12,8.71-8.25,15.4-10,23.71-4.15,20.17,4.74,40.77,24.3,46.93,20.78,6.56,34.05,19.23,43.79,38,17.11,33.06,34.95,65.64,42.68,102.64,2.46,11.82,3,23.88,3.27,35.57.86,42.4,16.51,77.5,46.2,107.35,9.14,9.19,17.61,19.16,26.75,28.43,22.42,22.73,54.61,28.64,87.34,14.07,39.42-17.56,79.11-34.54,118.68-51.78,1.21-.53,2.35-1.24,4.6-2.45-7.58-5.56-16-4-23.34-6.3-29.46-9.18-59.07-17.82-89.85-21.68-11.81-1.48-23.54-4.68-35.35-5-12-.29-21-5.45-29.19-12.82-12.8-11.56-24.06-24.74-37.65-35.51a38.3,38.3,0,0,1-14.74-25.9c-2.69-21.54-10.06-42.33-8.78-64.54.88-15.31,8.37-28.9,9.55-44.12.49-6.27,1-12.56,1.28-18.86.19-4.22-.41-8.65.68-12.62,1.8-6.6,2.49-16.18,9.55-17.26,4.34-.66,5.4,9.31,7.57,14.65,9.37,23,24.45,42.47,38.65,62.53,12.58,17.78,24.79,35.86,30.93,57.22,2.31,8,2,16.17,1,24.12-3,24.1,2.56,45.88,16.2,65.73,3.3,4.81,7.72,8.43,13.78,8.83,21.9,1.46,42.85,7.23,63.54,14,16.39,5.37,33,9.43,50.22,10.91,13.89,1.2,25.67-6.08,38.23-10.21,2,1.51,1.8,3.1.18,4.75-24.32,10.13-49.92,18-72.58,31-21.83,12.53-38.92,32.12-56.1,50.88-17.51,19.12-30.67,41.07-42.46,63.73-7.56,14.53-14,30.17-16.46,46.51-2.26,15.26,6.41,28.55,12.14,42,8.78,20.7,19.45,40.67,27.22,61.72,10.7,29,12,58.9,2.91,88.85-4.95,16.35-17,27.14-29.13,38-14.42,13-31.41,22.44-47.06,33.71-22.7,16.35-36.1,36.77-38.83,65.3-2.6,27.34-16.91,48.88-37.92,67-24,20.65-52.35,35.78-73.65,59.63-6,6.74-13,12.94-15,22.42Z"/><path class="cls-3" d="M474.2,1507.49c20,10.85,36.09,45.2,31.16,69.44-3.24,15.94-.05,30.71,4.26,45.59,9.58,33.08,10.83,65.37-4.79,97.5-12.11,24.93-21.3,51.27-36.61,74.63-1.89,2.9-4,5.65-7.29,10.21-2.51-11.12-2.43-20.85-6.19-29.91-7.61-18.35-20.55-32.59-33.86-46.54s-26.66-28.27-35-45.92c-6.11-12.94-9.36-26.6-7.57-41.61,2.75-23.13-8.58-41.2-23.89-57.33-11.38-12-24.73-22.18-34-36.12-10.43-15.74-15.4-32.42-11.57-51.88,5.21-26.47,15.53-50,32.86-70.75,7.86-9.41,14.51-19.87,21.31-30.13,8.1-12.23,7.88-25.51,5.05-39.47-8.05-39.8-24.81-75.11-51.33-106-15.33-17.88-33.25-33.5-46.67-53-10.93-15.88-21.07-32.3-31.81-48.32-15.58-23.22-31.38-46.29-49.12-68.3,5.45,15.67,11.5,31.17,16.21,47.06,9.41,31.73,8.62,63.81,1.61,95.92a165.1,165.1,0,0,0-3.34,17.56,25.43,25.43,0,0,0,3.66,16.82c14.21,23.82,28.15,48,32.69,76,3.19,19.68-2.36,38.22-8.38,56.64-9.25,28.27-30.29,47-52.67,64.33-16.9,13.11-34.6,25.19-51.9,37.78-2,1.44-3.92,4-6.4,2.47-3.13-2-.35-4.44.67-6.34,6.47-12,4.53-24.52,1.72-36.82-3.12-13.67-8.34-27-10.44-40.74-3.35-22,5.6-40.61,19.68-57,15-17.46,28-35.49,31.63-59.5,2.46-16.11,16.83-25.57,28.15-36,4.74-4.36,7.79-8.73,8.11-15,.95-18.62,6.39-36.56,7.67-55.22,2.17-31.68-5.62-61-16.72-90.2-14.28-37.59-37.49-68.63-64.53-97.77-22.24-24-44.77-47.58-68.29-70.29A765.59,765.59,0,0,0,.2,878.8v-6.35c5,.69,9.19,3,13.55,5.4,44.63,24.62,88.74,50.49,136.66,68.32,25.84,9.61,53.1,10.73,80.82,9.58,47.92-2,87.65-23,125.58-49.48,29.91-20.86,62-36.4,99.36-35.67a330.3,330.3,0,0,1,60.5,7.26c13.44,2.79,26.91,5,40.65,5.17,4.4,0,8.57.43,11.1,4.62,2.73,4.53-1.13,7.44-3.28,10.24-11.57,15-23.07,30.12-35.38,44.52a83.67,83.67,0,0,0-12.56,19.41c-7.46,16.2-20.6,23.71-37.28,27.69-23.88,5.7-47.68,11.91-71.2,19-30.87,9.26-60.87,6.21-91.19-2.73-28.52-8.41-55.1-21.39-81.69-34.06-17.88-8.52-36.05-12.32-55.33-14.18-31.14-3-58.13-17.91-85.4-31.61-24.68-12.4-49.09-25.34-74.64-37,5.93,5.42,11.76,10.94,17.79,16.23,35.78,31.34,68.49,65.56,99.86,101.34,36,41.09,67.51,85.31,98,130.45,20,29.61,37.53,61,63.23,86.54,23.78,23.59,51.76,40.81,81.76,55.07A469,469,0,0,0,495.79,1316c16.18,3,32.34,1.11,47.93-3.73,7.82-2.42,9.76-10.87,12.75-17.31,10.66-22.93,9.9-47,5.55-71.25a239.06,239.06,0,0,1-1.29-75.6c2.81-20.15,14.75-34.49,29.62-46.86,21.31-17.72,46.33-30.65,65.41-51.34,27.74-30.08,45.67-63.27,36.39-106-.27-1.22.28-2.62.76-6.4,12.56,18,22.79,34.61,29.13,53.75,10,30.13,12.28,61.92,21,92.27,2.71,9.44,5.12,19.23,9.58,27.87,11.2,21.71,7.74,42.72-.22,64.22-12.36,33.37-25.18,66.49-47.52,94.76-22.21,28.11-49.83,47.47-86.63,50.59-12.05,1-23.69-2.34-35.21-5.5-10.7-2.93-21.37-4.18-32.19-.64-29.83,9.77-59.47,6.93-89.72-1.2,16.22,11.45,22.89,30.08,35.53,44.08,19,21,45,24.59,70.48,29,22.77,3.88,46.21,2.87,68.71,9.15,31.2,8.7,54.36,25.52,65.23,58,7.32,21.86,28,28,47.94,16.73,2.32-1.31,4.51-4.6,7.28-1.87,2.18,2.15-.6,4.48-1.44,6.63-5.91,15.26-19,22.82-33.05,27.5-20.69,6.88-41,13.58-59.84,25.36-20.37,12.76-43.07,8.86-64.29,1.58-44.35-15.23-74.62-46.09-90-90-6.76-19.31-8-40.51-12.36-60.72-6.83-31.62-24.53-55.5-52.63-71.61-1.52-.87-2.92-2.18-4.56-2.6-40.61-10.47-77.05-29.82-114.69-54.43,14.12,17.64,24.37,34.1,32.24,51.9,9,20.32,16.61,41,17.14,63.67.17,7,3,12.55,8,17.71,34.78,36.06,62,78.07,92,117.87,1.13,1.5.93,4,1.35,6-7.14,3-9.26-3-12-7.06-23.82-35.42-49.87-69.14-77.27-101.82a14.93,14.93,0,0,0-5.71-4.61c.54,12.7,0,24.6.78,36.41,1.62,25.6,2.76,51.22,11.08,76,8.24,24.51,22.53,45.31,37.21,66,11,15.51,22,30.87,30.85,47.9,21.82,41.85,28.67,85.76,22,132.16a59.26,59.26,0,0,1-2.75,9.86c5.4-11.62,9.22-24.32,15.47-35.65,19.27-34.92,18.8-71,7.34-107.56a98.87,98.87,0,0,1-3.31-45.87c2.39-15.11,0-28.66-11.11-40.1-4.4-4.53-7.9-9.93-11.45-15.18C473.18,1514.81,471.06,1511.41,474.2,1507.49Z"/><path class="cls-4" d="M304.93.29c10,35.26,12.61,71.09,9.22,107.55A197.25,197.25,0,0,1,301.09,163c-7.77,19.47-21.92,34.15-35.64,49.23q-12.08,13.29-23.81,26.88c-14.43,16.68-17.65,37.12-18.76,58.07-1.39,26.31-6.73,51-27,70.46,20.42-6.4,39-15.87,56.69-26.92,43.26-27,80.36-60.53,107.33-104.21,18.6-30.15,29.5-63.68,40.32-97.17,8.87-27.45,17.58-55,30.45-80.94,11.43-23,26.75-43,47.83-58.09h6.35c1.34,3.92-1.45,6.06-3.91,7.81-33.12,23.61-48.41,58.76-61.24,95.29-11.55,32.91-21.3,66.43-34.51,98.77a260.27,260.27,0,0,1-46.51,75.11c-1.06.94.78,1.76-.27.82-.09-.08.06-.32.48-.7,17-15,36.47-26.58,55.39-38.69,70.1-44.85,127.91-101.39,169.52-173.83,10.36-18,19.63-36.65,28.65-55.4,1.68-3.49,2.89-7.25,6.67-9.18h4.24c3,4,.23,7.4-1.29,10.8-22.55,50.48-50.2,97.84-87.18,139.24a525.69,525.69,0,0,1-97.11,84.46c-36.72,25-74.37,48.58-110,76.69,37.43-8.94,74.67-15.63,110.9-26.28,46.25-13.6,89-33.88,121.87-70.71,21.41-24,39.39-50.62,57.32-77.23a287.89,287.89,0,0,1,26.71-34.11c16.37-17.8,21.5-38.23,16.93-61.63-1.69-8.65-3-17.37-4.33-26.09-.77-5.17-1.9-10.57,2.13-15.14h4.23a137.74,137.74,0,0,0,4.19,36.58c6.11,25.31,2,48.37-15.51,68.06-25.61,28.79-45.32,61.86-68.2,92.63-25.83,34.73-58.67,60.27-98.12,77.81-44.74,19.89-92.53,28.54-140,38.39-25.8,5.36-49.88,14.07-71,30.31-5.1,3.93-11,6.79-18.72,11.45,18.59,1.41,34.62,0,50.62,1.87,16.95,1.95,33.39,5.41,49.1,11.51,20.91,8.14,39.19,5.62,57.34-7.93,13.44-10,27.69-19.19,43.42-25.89,22.69-9.68,45.34-9.53,67.83-.88,24.31,9.34,48.17,19.84,72.24,29.81,7.6,3.15,14.75,6.91,18.66,14.67,1.38,2.75,3.43,7.34-2.54,5.79-23.37-6.08-45.84-3.28-67.93,5.37-.71-5.55,3.71-7.18,7.33-9,10.45-5.17,21.31-8.38,30.74-5.69-4.71-.12-11.66-1.42-18.55-3.12-24-5.92-47.61-6.51-71.78.68-24.69,7.34-50.59,7.67-75.6,9.2,21.49,6.77,43.47,13.86,66.81,16.2a96,96,0,0,0,47.37-7c4.42-1.84,8.78-5.12,13.77-1.33-17.16,15.9-38.36,17.74-60,16.12-30.15-2.24-58.25-12.82-86.24-23.39a55,55,0,0,0-16.35-3.66,75.93,75.93,0,0,1-23.62-4.76c-37.29-14.73-76.13-17.66-115.21-10.94-16,2.75-31.08,11-46.72,16.24-30.69,10.34-63.05,14.21-95.08,24.23,12.82,4.23,25.33,3,37.4,4.84,43.06,6.47,83.36,20.18,119.1,45.36,11,7.77,21.07,11.88,35.54,11.08,32.63-1.8,65.45.77,98,4.29,39.12,4.23,78.14,10,117.48,11.26,25.41.85,45.49,9.32,60.66,30.11,10.84,14.85,26.28,24,42.75,31.89,32.4,15.58,62.82,34.28,80.66,67.1,10.4,19.14,18.75,39.4,27.84,59.24A409.91,409.91,0,0,1,724,731.22c.89,3.26,3.3,6.43,1.21,10.55-6.79-2.28-11-8.27-17-11.67a105.07,105.07,0,0,0-51.29-14.27c-21.51-.27-43-.19-64.53,0-36.13.38-67.82-9.71-92.81-37.34-13.8-15.25-32.24-20.77-52.19-21.82-18-1-35.88,1.15-53.82,1.91-57.5,2.42-82.78-20.8-107.57-72.83-12.23-25.66-15.4-54.07-20.82-81.54-5.32-27-20.43-43.73-43.62-56.63-48.27-26.86-99.75-39.28-154.71-38.8-19,.16-36.14,8.48-54.36,12-4.13.79-8.19,1.91-12.28,2.88v-4.23c17.15-6.64,29.73-19.36,39.6-33.81a494.89,494.89,0,0,1,55.12-67.84c6-6.11,4.79-12.91,3.82-19.73-3-20.8-11.43-39.4-26.16-54.26C56.63,227.72,50.81,208,49.08,186.55c-1.45-17.88-1.85-35.87-2.22-53.82a196.41,196.41,0,0,0-10-56.88c-.69-2.15-3.39-4.57-1-6.69,2.87-2.59,6.14-.55,8.78,1,9,5.23,15.55,13.11,22.1,20.91C74,99.71,81.58,108,91.27,114c21,13.08,30.57,34.69,42.9,54.85,16.22,26.53,11.69,53.15,6.93,80.6-.83,4.84-1.11,9.78-2.07,14.59-2.8,14.15-9,26-20,36.15a519.72,519.72,0,0,0-79,91.79c-4.82,7.18-11.49,13.12-19,21.57,20.29-5,38.35-9.55,56.47-13.86,23.55-5.6,47.25-10.62,70.71-16.62,22.79-5.83,44.2-14.41,57.72-35.57,9.42-14.75,11.48-31.54,13.16-48.35,2.76-27.62,6.25-55.27-1.08-82.78a137.32,137.32,0,0,0-23.43-48.08C169.78,135.73,158.28,98,150.4,58.77c-3.88-19.3-8.28-38.54-6.3-58.48h2.12c3,3.05,2.84,7,3.34,10.86,4.18,31.84,11.36,63.05,19.89,94,4.93,17.87,13.65,34.16,24.4,48.93,19,26.17,33.2,54,35.55,87a369.53,369.53,0,0,0,19.48-88.86c2.75-28,3.12-56.16,5.9-84.18,1.92-19.43-4.73-37.46-14.5-54.28-2.35-4-6.42-8-3.07-13.45h4.23c15.11,15.87,22.12,35.21,22,56.67-.19,50.82-2,115.12-16.89,165.9,7.42-10.4,15.79-18.26,23.66-26.57,27.38-28.92,36.19-64.76,37.7-103,1.1-27.54-.89-55-7.67-81.88-.93-3.68-2.37-7.54.43-11.16Z"/><path class="cls-1" d="M599.07.29c-42.53,101.37-109.49,182-203,240.43-21.67,13.55-42.38,28.63-64.54,42,7.73-10,15.76-19.86,23.14-30.16,21.59-30.17,33.64-64.74,45.52-99.41,10.47-30.57,18.5-62,33.5-91C445.35,39.76,458.88,19,480.65,4.93c1.68-1.08,2.78-3.07,4.15-4.64Z"/><path class="cls-1" d="M639.28.29c-.81,13.89,2.54,27.33,4.94,40.78,3.86,21.59,1.77,41.4-13.29,58.43-25.47,28.82-45.33,61.76-68.08,92.58-29,39.25-66,67.3-111.83,84.9-48.86,18.75-100.37,25.8-150.42,39.14l-1.17-2.51c19.89-14.28,39.42-29.07,59.73-42.72C411.74,235.54,465.35,201.58,508,153.67c30.35-34.06,56.14-71.18,76.16-112.27,6.62-13.59,14-26.81,19.12-41.11Z"/><path class="cls-5" d="M213.93,2540.55c-10.17-32.49-15.74-65.8-14.49-99.78,1.89-51.16,11.94-100.4,37.51-145.68,10.24-18.12,12.36-38.78,14.45-59.05,1.69-16.43,2.23-33,2.53-49.55.67-36.16-18.75-60.61-50.87-71.83-13.63-4.76-27.16-10-41.12-13.51-27.93-7-50-23.63-71.61-41.25a249,249,0,0,1-19.6-17.64C54.61,2026,47.79,2006.94,48.48,1984c.43-14.1-7.67-26.88-10.28-40.74-4.9-26-5.37-52.41-8-78.61-1.29-13.06-3.17-25.77-6.7-38.35-.79-2.8-3.44-5.66-.16-10,7.58,6.45,12.16,15.16,17.72,22.84,18.34,25.37,35.05,51.91,54.86,76.24,18.18,22.32,44.64,32.53,67.81,47.67,25.22,16.49,46.75,37.39,62.71,63.27,9.85,16,13.63,33.85,13.18,52.59-.35,14.78.83,29.63-1.78,44.31-.74,4.14.53,7.63,3,10.85,16.19,21.17,19.74,44.78,16.34,70.91-2.39,18.37-1.4,37.19-3.73,56.26,3.25-5.7,6.88-11.23,9.69-17.14,20.9-43.86,51.46-81.36,79-120.86,18.93-27.15,37.16-54.66,50.47-85.27,5.62-12.93,1.77-22.72-5.85-32-10.09-12.33-23.5-19.9-38.77-24.28-16.6-4.76-33.64-7.33-50.65-9.76-37.22-5.31-63.43-26.29-84-56.35-14.2-20.7-24.8-43.24-35.93-65.56-14.47-29-28.67-58.24-52.57-81.12-4.29-4.11-8.81-8.33-14-11.14-17.5-9.56-33-21.27-45.59-37-4.72-5.88-11.34-10.48-18.33-14-2.08-1-5.48-1.58-5.26-4.41.26-3.33,3.92-3.55,6.48-4.38,13.88-4.54,28.45-5,42.74-5.81,23.18-1.31,46.35-3.89,69.64-2.68,30.67,1.58,60.94,5.25,89.77,16.75a187.59,187.59,0,0,0,31.1,9.91c34.81,7.29,59.39,29.4,76.88,58.5,33.34,55.45,52.05,116.17,56.31,180.71,2.45,37.16-10.26,71.32-27.3,103.87-20.81,39.76-47.7,75.5-73.79,111.78-.74,1-2.21,1.9-.67,4.17,18.74-17.42,41.71-28.16,63.45-40.86,12-7,21.82-16.51,31-26.78,14.62-16.42,30.23-31,51.72-38.82,20.83-7.54,38.81-21.59,59.86-28.85,44.75-15.42,86.16-8.86,122.64,21.6,21.88,18.26,43,37.47,66.24,54,3,2.11,6.58,4.17,7,9.76-24.73-9.11-45.16,5.67-67.08,11.2-30.39,7.66-60.34,16.27-92.26,14.85-18-.8-34.8-5.32-51.14-11.74-34.64-13.62-70.2-16.93-106.79-11.68-2.05.3-4.4.46-6,1.57-26,18-55.39,30.48-79.78,51.25a126.06,126.06,0,0,0-29.64,36.58c-20.93,38.7-41.58,77.56-59.5,117.79-2.79,6.26-4.11,13.18-5.54,20.12,30.59-37.74,71.73-59.85,114.67-79,35.67-15.88,72-30.34,111-35.83,14.31-2,29.18-2.57,43.25.07,34.52,6.45,69,13.73,102.06,25.94,37.16,13.72,59.62,40,66.42,79.17,3.86,22.19,9.45,43.93,15.47,65.59a27.64,27.64,0,0,1,1.15,7.26c0,3.38,1,7.69-3.32,9.12-3.65,1.22-5.45-2.53-7.65-4.61-17.47-16.46-35.09-32.56-57.82-41.89-8.34-3.42-17.06-5.68-25.6-5.26-29.37,1.46-54.12-9.67-77.75-25.45-31-20.71-63.13-39.6-94-60.59-26-17.69-54.78-18.23-83.36-4.31s-56.32,28.92-80.15,50.44c-21.89,19.76-33.44,43.57-36.26,73.37-4.14,43.82-.87,86.38,12.82,128.17a11.4,11.4,0,0,1,.12,3.16Z"/><path class="cls-1" d="M869.94.29h158.71c35.8,8.78,70.5,21.85,107.1,27.44,29.93,4.57,59.87,7.89,90,1.26a30.75,30.75,0,0,1,5.17-1c2.84-.13,6.28-.31,7.19,2.91.73,2.6-2.25,4-4.11,5.55-12.77,10.76-28.13,17.1-42.74,24.57-33.78,17.26-68,33.6-103.63,46.86-5.32,2-10.73,3.62-16.42,3.43-28.71-1-57.32-2.9-86-5.38-27.08-2.35-44.64-18.31-63.34-33.92-21.72-18.14-34.67-43.19-50.74-65.78C869.86,4.43,869,2.52,869.94.29Z"/><path class="cls-2" d="M869.94.29C888.08,23,900.83,49.72,923,69.54,935.9,81.13,950.66,89.9,964.54,100c5,3.64,11,1.74,16.46,2.39,19.12,2.25,38.16,4.93,57.44,6.33,32,2.33,61.16-5.4,89.34-19.46,30.43-15.17,61.14-29.77,91.5-45.09,6.33-3.2,11.64-8.43,19.72-14.44-11.3,1.8-19.74,3.5-28.26,4.44-49.61,5.51-96.79-6.64-143.8-20-13.1-3.72-26.59-6.31-38.29-13.89h46.56c31.4,22.29,67.61,25.88,104.45,26.42,16.46.24,32.92,1,49.31-3.18,12.63-3.2,24-7.81,33.34-17,2.85-2.79,6.49-4.16,9.7-6.28h6.35C1259,20.81,1238.24,40.13,1212.56,52a232.94,232.94,0,0,0-89.92,72.55c-9.73,12.89-20.81,24.22-25.56,40.54-5.15,17.72-3.28,33.65,5.2,49.69,11.22,21.23,27.49,39.06,39.32,59.85,14.14,24.84,20.34,52.1,24.69,80,2,12.94,4,25.82-2.11,38.29-.46.94-.46,2.19-1.09,3-18.12,21.77-22.33,50.64-37.76,73.81-10.48,15.74-20.08,32.09-30.81,47.66-8.79,12.77-13.36,27.56-20.84,41.53-4.39-3.22-2.71-7.35-2.81-10.8-.8-29.94,1.86-59.81,2.75-89.71.86-29.36-8-55.14-19.92-80.9a182.22,182.22,0,0,1-14.31-110c3.84-21.81,18.48-38.21,32-54.81,4.89-6,10-11.86,15.34-17.4,3.43-3.54,3.33-7.63,3.13-11.81-1-21.63,9.43-38.59,22.6-54.07,13-15.23,25.54-30.81,39.17-46-16.24,6.91-32.4,14-48.72,20.68-32.23,13.22-66,21.61-99.19,32-30.13,9.44-59.91,20.09-87.68,35.46-15.36,8.5-16,25.65-13.44,37.74,3.71,17.71,13.1,32.14,25.39,45.2,13,13.79,26.39,27.12,37.26,42.9S981,330,982.06,348.49C984.12,383.22,978,417,970.6,450.74,964.19,480,960,509.45,965,539.54c1.35,8.09,3.11,16.29,7,23.1,7,12.47,8.3,26,9.76,39.5,1,9.58,2.36,18.78,6.82,27.38,1.09,2.11,2.87,4.47.72,6.77s-4.5.75-6.92.39c-7.94-1.18-14.5-5.61-20.85-9.71-36.6-23.65-73.73-46.54-103.9-78.86-17-18.18-28.2-40.23-43.13-59.74-9-11.71-18-23.52-22.11-38-5.45-19.2-6.14-38.9-4.47-58.58,3.55-41.82,18.48-80.6,34-119,20.79-51.26,56-88.82,106.95-112.27,37.53-17.27,76.41-29.92,115.88-41.31a53.86,53.86,0,0,0,13.41-5.61c-26.85.53-53-3.84-79.23-7.06-21.11-2.59-41.73,4.59-62.63,6.84-13.21,1.43-24.8-2.78-37-5.19-26.78-5.26-54.84-6.31-79.49-19.08C764,70.53,741.93,41.12,736.62.29h4.23c6.08,11.54,7.58,24.86,14.59,36.1C771.43,62,791.5,82,822.07,89.71c27.74,7,56.09,10.62,84,16.65,5.68,1.23,11.22,0,15.56-.27-17.73-5.7-35.52-14.72-54.34-21a183,183,0,0,1-81.79-54.36c-7.86-9-17.48-17.4-19.24-30.48h6.35c7.84,5.2,12.28,13.48,18.07,20.46,20.74,25,45.63,43.6,76.89,53.5,13.76,4.35,27,10.26,40.09,16.35,12.3,5.74,24.7,7.2,39.67,6-23.83-14-41.26-32.53-56.4-53.4C882.25,31.23,875.25,18.12,865.39,7c-1.56-1.76-3.1-4-1.8-6.72Z"/><path class="cls-1" d="M237.21.29c1.61,8.19,7.5,14.23,10.85,21.59a103.13,103.13,0,0,1,8.88,55.44c-2.72,24.81-3.08,49.87-5.19,74.77-2.73,32.35-8.71,64.09-21,94.37-.59,1.46-1.46,2.8-3.21,6.1-3.19-26.28-6.71-50.1-19.52-71.39-8.52-14.16-18.24-27.51-26.71-41.75-16.62-28-21.56-59.32-28.5-90.1-3.62-16.06-6.39-32.42-6.63-49Z"/><path class="cls-1" d="M.2,610v-86.8c4.44-3.65,8.86-1.2,12.94.47,52.5,21.55,97.27,53.33,132.11,98.71,13.81,18,26.06,36.77,35.67,57.28,1.47,3.15,4.18,6.77,1.55,9.84-3.16,3.69-6.51-.24-9.36-1.63-19-9.28-39.56-9.32-59.85-9.94-16.23-.5-32.47-.52-48.1-5.08-24.7-7.2-41.33-24.63-54.6-45.69C7,621.47,3.38,615.84.2,610Z"/><path class="cls-1" d="M186.42,2540.55c-59.75,0-119.5-.1-179.25.15-5.63,0-7.21-.81-7.15-6.9.36-38.68.18-77.36.18-116,3.1-1,4.85,1.27,5.87,3.29,9.69,19.14,27.66,27.16,46.13,34.26,12.17,4.68,23.34,11.3,35.06,16.85,9.25,4.38,18.45,8.41,28.82,9.42a20.42,20.42,0,0,1,13.15,6c16.37,16.93,34.89,31.44,52.8,46.65C183.91,2535.82,187.44,2536.75,186.42,2540.55Z"/><path class="cls-6" d="M.2,2405.07v-144c8.06-26,22.86-48.13,39.2-69.4,1.69-2.21,3.47-6.55,7.18-4.15,3.12,2,1.35,5.95.4,8.81a204.4,204.4,0,0,0-9.65,80.24c2.6,33.52,1,67.61,11.22,100.32,6.64,21.19,19.14,39,31.78,56.86,9.4,13.29,21.51,24.19,31,37.29,1.78,2.46,4.94,5,2.44,8.26-2.19,2.87-5.8,2.15-8.84,1.14-2.65-.87-5.27-1.95-7.85-3.09-21.54-9.55-42.43-20.48-64-29.93C14.93,2439.54,4.12,2424.66.2,2405.07Z"/><path class="cls-1" d="M300.7.29c12.63,50.61,16,101.22,0,151.82a105,105,0,0,1-22.35,39.09c-11.72,13-23.32,26.08-35.74,38.67,2.5-16.82,8-32.69,9.89-49.35,1.68-15,4.57-29.88,5.54-44.9,1.53-23.53,1.65-47.14,2.81-70.7,1.05-21.24-5.45-40.2-16.12-58.1-1.24-2.08-2.17-4.35-3.25-6.53Z"/><path class="cls-7" d="M.2,518.93V476.59c12.23-3.94,24.6-1.39,35.81,2.33a196.4,196.4,0,0,1,80.45,50.78c12.71,13.22,22,29.1,29.7,45.79,11.49,25,19.28,51.26,27.88,77.26.88,2.68,2.6,6.07-.55,7.53-3.32,1.54-4.56-2.34-5.9-4.59C129.54,591.84,75,548,5.82,521.71,3.86,521,1.72,520.58.2,518.93Z"/><path class="cls-1" d="M863.59.29c19.94,23,33.07,51.23,55.9,72.09,10.41,9.51,22.24,17,36,27.15-13.18.13-24.35,2.86-34.11-1-29.56-11.79-60.47-20.83-88.12-36.69C807.73,47.16,787.76,25.8,772.6.29Z"/><path class="cls-8" d="M1377.82.29h6.34c7.94,7.1,6,17.36,6.46,25.85,1.71,28.81,2.14,57.86-8.17,85.58-4.76,12.83-10.39,25.21-18.29,36.72-13.35,19.44-26.38,39.13-40.1,58.28a200.42,200.42,0,0,1-47.63,47.46c-2.88,2-7.16,5.77-10.2,1.8-2.68-3.51,1.14-7.22,3.73-10,14.88-16,29.48-32.25,38.78-52.36,5.28-11.43,10.75-22.74,13.77-35.15a275.14,275.14,0,0,1,27-68.53c11.57-20.93,15.94-44,20-67.21C1370.81,14.78,1372.74,6.92,1377.82.29Z"/><path class="cls-9" d="M766.25.29c15.11,23.63,33.6,44,56.75,60.11,17.5,12.14,37.39,19,57,26.62,5.55,2.15,11.08,4.35,16.65,6.44,12.3,4.59,23.73,11.83,37.65,12.12-12.47,4.27-24.92,5.66-37.48,2.45-26.15-6.68-53.11-9.24-79.18-16.5C779.47,80.91,741.89,37,740.85.29Z"/><path class="cls-6" d="M1272,.29c-15.27,21.57-38.08,27.75-62.44,29.48A329.49,329.49,0,0,1,1108.28,21c-12.91-3.13-24.79-9.47-33.07-20.75Z"/><path class="cls-10" d="M.2,2405.07a16.61,16.61,0,0,1,2.19,3.46c6.84,20.39,20.75,33.38,40.56,41.5,19.47,8,38.29,17.54,57.4,26.4,3.85,1.79,7.71,3.57,13,2-4.2-6.9-9.61-12.48-14.8-18.28-22.16-24.74-42.3-50.78-53.11-82.83-6.95-20.6-7.57-42.16-8.82-63.44-1.53-26.26-4.52-52.56-.71-79,2.25-15.6,4.92-31,9.66-46.21A234.36,234.36,0,0,0,4.63,2253c-1.23,2.86-1.5,6.2-4.43,8.12v-10.59c13.72-26.63,29.47-51.93,49.07-74.68,2.34-2.71,4.1-8.07,8.46-6.18,3.33,1.45,1.67,6.45,1.45,9.75-1,14.71-2.44,29.39-3.55,44.09-2,26.87,4.12,52.58,13.51,77.24,9.28,24.4,17.52,48.83,21,74.8,3.57,26.29,16.19,49.24,27.86,72.49,4,7.93,6.79,16.14,7.35,25.08.38,6.2,3.14,11.08,7.69,15.58,15.27,15.13,32.2,28.29,48.49,42.22,3.31,2.82,8.27,4.36,9.09,9.63h-4.24q-28.62-24.78-57.27-49.51c-2.35-2-4.88-5.13-7.53-5.35-28-2.39-49.65-20.32-74.73-29.75a142.79,142.79,0,0,1-24.45-12.08c-10.45-6.39-15-17.27-22.24-26.09Z"/><path class="cls-11" d="M1377.82.29c-7.94,22.92-8.8,47.63-17.24,70.32-5.11,13.73-12.6,26.57-18.81,39.91-8.47,18.21-13.49,37.59-19.61,56.64a185.06,185.06,0,0,1-40.33,69.4c-5.38,5.83-11.33,11.16-15.25,19.6,12.72-5,20.84-14.12,29.68-22.38,24.71-23.1,40.87-52.6,60.36-79.62C1370.42,135,1381,114.6,1385,91.47a246.54,246.54,0,0,0-.83-91.18h6.35a9.89,9.89,0,0,1,2.74,5.88,377.27,377.27,0,0,1,.56,73.7c-2.68,30.64-15.3,56.77-32.32,81.37-3.2,4.62-6.82,9-9.84,13.73-18.49,29.12-38.78,56.73-67.07,79.14,37.33-9.46,67.93-28.68,96.62-51.24,14.9-11.72,20.84-29.8,30.1-45.46,3.4-5.75,6.16-11.9,9.59-17.63,1.17-1.95,2.26-7,6.57-2.76-.45,3.87,1.33,8-1.22,11.63-6.83,6.39-11,14.87-14.19,23.08-10.11,25.9-30.56,41.17-52.44,55.91-27.23,18.35-57.17,29.76-88.64,37.82-6.23,1.6-15.19,5.63-18.34,1.42-3.39-4.51,5.08-9.58,8.68-14.07,9.45-11.76,19.17-23.34,29.22-34.6,16.66-18.7,24.84-41.71,31.23-65,5.17-18.79,11.13-37.09,20.47-54,13.14-23.76,20.51-49.12,25-75.63,1.35-7.91,4.17-15.57,6.31-23.35Z"/><path class="cls-12" d="M.2,518.93c27.3,6.92,51.38,20.66,74.64,35.89,40.14,26.29,71.6,60.89,96.09,102,.45.75,1.18,1.33,3.64,4-14.54-43.4-24-86.36-52.46-120.44C90.6,502.62,51.49,477.48.2,476.59v-4.23c50.54.16,89,25.77,121.87,60.55,18.43,19.51,28.86,44.77,37.59,70.1,11.09,32.16,21.24,64.65,31.76,97a7.18,7.18,0,0,1-.25,4.65c-6.89-5.81-13-12.29-21.19-16-14.08-6.39-29.14-7.79-44.18-8.29-15.81-.53-31.62-.47-47.34-2.66C52.63,674.1,32.63,661,17.34,640.22,11.53,632.32,5.91,624.28.2,616.31V610C10,617,13.69,628.56,20.51,637.8,39.39,663.37,65,674.67,95.89,675.48c19.35.51,38.64,1.32,57.86,4,9.7,1.34,17.95,5.95,26.63,9.93,2.59-3.21-.28-5.4-1.31-7.52-35.62-73.2-91.58-124.65-166.7-155.48-3.85-1.57-8.1-2.17-12.17-3.22Z"/><path class="cls-13" d="M1426.49.29,1426,57.37c-5.2.42-6-4.11-7.88-7.24-5.8-9.7-9.88-20.24-14.61-30.46-2.76-6-6.25-11-12.93-13q0-3.18-.08-6.36Z"/><path class="cls-14" d="M1426.09,1388.17c.05,1.85.1,3.7.14,5.55-25.91-18.76-51.65-37.79-78.59-55.1-14.43-9.27-30.78-13.9-46.63-19.55-35.23-12.58-71-22.76-109.1-20.93-19.53.94-38.18,5.86-56.77,11.2-10.46,3-20.58,7.1-31.57,8.22-5.27.54-10,2.47-13,7.84-2.52,4.6-6.23,8.52-9.15,12.92-9,13.61-20.34,24.33-36.48,28.74-23.81,6.51-41.2,22.33-57.57,39.53-14.62,15.34-30.49,28.54-52.48,30.94-15.88,1.73-31.53-1.08-47.21-3.66-21.48-3.53-43.31-8-63.31,8.74-.18-2.95-.82-4.6-.26-5.48,20.07-31.36,34.94-65.84,57.58-95.66,19.59-25.81,45.29-41.65,75.78-52.76,39.8-14.49,74.5,1.07,110.27,13,8.3,2.79,16.5,6.18,23.87,11.15,5,3.4,10.07,1.39,15.22.11,24.85-6.14,48.85-15.16,74.73-17.94,29-3.11,56.77,1.45,84.38,8.62,15.57,4,30.76,9.53,46.91,13.12-13.57-8-27.09-16.1-40.72-24-33.54-19.37-68.58-35.88-103-53.54-54.49-27.93-95.73-69.5-128-121-20-32-50.73-47.74-87.2-53.21-26-3.9-52.58-2-78.6-8C819.33,1044,766,990.09,756.16,933.56c-2.27-13-3.09-26.87,3.81-39.32,13.22-23.86,16.69-50.6,23.33-76.45,4.21-16.4,12.38-30.65,27.39-39.91,2.28-1.41,4.78-4.33,7.35-1.41,2,2.26-.92,4.47-1.88,6.55-11.27,24.36-1.66,49.17,24.39,54.84,51.2,11.14,71.32,47.68,82.62,93.47,7.23,29.3,11,59.48,22.6,87.72,9.94,24.1,24.66,43.16,49.35,53.55a92.21,92.21,0,0,1,25.06,15.38l2.21-1.59q-9.14-20.16-18.27-40.34c-8.81-19.6-16.85-39.46-22.41-60.31s-5.42-41.84-1.08-62.77c3-14.34,1.78-28-4.47-41.13-19-40.05-10.74-77.51,11.28-113.28,23.61-38.35,60.36-61.26,98.92-81.56,17.11-9,35.06-16.43,52.37-25.08,14.74-7.37,29.48-5.9,44.06-.73,25.79,9.15,52.61,12,79.56,14.51,32.5,3,65.27,4.64,96.23,16.57,12.24,4.71,24.74,9,35.55,17.93-4.19,2.88-7.77,1.68-11.05,1.46-35-2.34-63.37,12.06-89.3,33.91-27.08,22.82-43.45,53.08-60.11,83.29-6,10.8-12.35,21.34-20.08,31-19.43,24.32-45.77,33.15-75.73,36.27-26.17,2.74-52-1-78.06-.37-23.47.54-44.84,7.34-64.76,19.86-8.79,5.52-12.13,12.9-12.89,22.54-1.9,24,2.52,46.66,10.86,69.21a643.77,643.77,0,0,0,44.64,96.72c34.26,59.91,81,106.86,143.77,136.78a1536.9,1536.9,0,0,1,203.06,116.74C1398.7,1367.28,1412.24,1378,1426.09,1388.17Z"/><path class="cls-15" d="M1426.33,1350.54l-.21,13.57c-13.56-24-17.83-50.89-22.83-77.45a29.79,29.79,0,0,0-11.42-19.13c-17.6-14.09-25.86-34.74-35.46-54.23-17.55-35.61-35.14-71.2-56.59-104.66-23-35.84-20.09-71.61-.66-107.55,9.18-17,18.57-33.86,27.87-50.78,7.6-13.81,6-29.36,8.4-44.16,3-18.37,10.14-34.38,27.28-44,2-1.14,4.33-3.42,6.75-1.77,2.8,1.91.34,4.48-.17,6.67-4.16,18-.75,35.71,2.37,53.28,4.31,24.25,8.87,48.87,24.86,68.62,10.39,12.82,20.66,25.63,29.63,39.46q-.12,6-.25,12a6.49,6.49,0,0,1-4.92-3.64c-8.71-17.13-21.75-31.16-32.88-46.57-15.86-22-27.4-66.61-26.54-95.42.27,49.47-5,98.57-10.86,147.5-2.81,23.55,4,44.57,8.68,66.48,6.54,30.64,10.13,62,21.93,91.37,6,15,12.16,29.91,18.08,45.59,3.63-37.4,7.15-74.19,15.69-110.2,2.19-9.27,2.49-19.7,10.82-26.63l.45,18c-6.64,44.17-13.77,88.27-17.52,132.82-.47,5.62-.79,11.33.26,16.88C1413.77,1301.47,1419.32,1326.18,1426.33,1350.54Z"/><path class="cls-1" d="M564.32,2506.73c-8.33,1.16-13-3.59-13.71-12.26-.64-7.42,7.23-15.29,14.82-14.48,6.83.73,13.23,3.55,14.33,11.46C580.71,2498.33,572.32,2506.69,564.32,2506.73Z"/><path class="cls-1" d="M738.93,2481.23c10-.5,12.71,4.66,12.69,13.2,0,9.15-4.21,12.4-13,12.42-13.71,0-7-10.1-8.25-16C729,2483.91,731.65,2479.76,738.93,2481.23Z"/><path class="cls-1" d="M708,2506.55c-4.61-3.29-1.45-11.32-9.21-10.44-6.4.72-3,7.06-6.91,10-3.51-7.22-2.06-14.45-1.39-21.25.53-5.47,6-3.31,9.47-3.57,4-.31,8.35.1,8.81,5.12C709.32,2492.71,709.94,2499.19,708,2506.55Z"/><path class="cls-1" d="M830.88,2507.1c-7.74-8.81-6.23-9-20.13-.55,3-8.33,5.26-15.43,8.18-22.25,1.71-4,6.11-3.81,7.14-.41C828.17,2490.91,832.55,2497.64,830.88,2507.1Z"/><path class="cls-1" d="M864.26,2500.09c2.63-1.89,4-.42,5.07.79,3.18,3.48,7.49,4.59,9.57.39,2.43-4.91-3.46-4.46-6.11-6-4-2.32-10.86-3.58-7.51-10.15,3.49-6.87,10.15-4.11,15.75-2.42,2,.59,4,2.11,2.22,4.69-1.49,2.17-3,.74-4.35-.41-2.41-2.14-5.39-5.13-7.65-.93s1.83,5.07,5,5.71c4.27.86,8.38,1.83,8.44,7.49.05,5-3.42,6.67-7.42,7.24C871.6,2507.3,866.3,2506.82,864.26,2500.09Z"/><path class="cls-1" d="M857.29,2507.28c-5.83-8.79-11.8-8.59-18.38.29-.55-10.2,3.94-16.75,6.91-23.5,1.93-4.38,5.47-2.24,6.78,1.25,2.41,6.42,4.26,13,6.34,19.6Z"/><path class="cls-1" d="M652.66,2493c-3.39,5.81-12.39-3.43-12.81,4.79-.46,9,9.76,1.54,13.24,7.26-5.54,2.67-11,2.43-16.45.38-1.86-.7-2.67-20.72-.7-22.17,5.13-3.79,10.76-1.91,16.43-1.22-.28,1.13-.27,1.52-.46,1.76-3,3.84-11.14-1-11.21,4.42C640.61,2494.27,649,2490,652.66,2493Z"/><path class="cls-1" d="M805.15,2507.88c-4.2-6.24-1.58-14.32-10.42-13.82-8.21.48-3.25,8.08-8.59,13.05-1.21-9.27-1.43-16.76.12-24.76,5.57.94.53,11,9.1,8.8,5.06-1.31,6.61-5.07,9.4-11C807.22,2490.12,806.86,2497.67,805.15,2507.88Z"/><path class="cls-1" d="M778,2481c-3.12,5.83-7.06,3.89-10.22,4.41-2,.32-4.63-.08-5,2.69-.47,3.78,2.64,3.38,5,3.61s4.62.33,7.66.53c-4.25,3.65-12.53,1.25-12.37,6.93.21,6.81,9.48.3,12.94,6.15-5.3,1.87-12,3.4-14.5-.44-4-6.12-3.6-15.1-.51-21.22C763.79,2478.19,771.38,2482.12,778,2481Z"/><path class="cls-1" d="M662.74,2481.25c3.16,5.67,1.53,10.32,2.06,14.73s2.58,7.75,6.92,8c5.42.31,5.4-4.17,5.73-8.16.36-4.38-1.29-9,2.65-13.1.93,7.25,4.28,14.74-1.66,21.54-3.11,3.57-7.67,3.29-11.63,1.05C661.34,2502.23,659.5,2492.25,662.74,2481.25Z"/><path class="cls-1" d="M604.85,2494.08c-7.36,1.41-16.45.12-13.52,12.54-3.53-8.81-5.1-17.24-1.05-23.71,2.49-4,10-2,18.14-.35-2.91,1.45-3.86,1.83-4.71,2.36-3.25,2-10.09-2.15-10.1,4.07C593.61,2494.22,601,2489.94,604.85,2494.08Z"/><path class="cls-16" d="M1425.9,2040.85l.21,17.45a477.26,477.26,0,0,0,.05,134.72q0,10.82,0,21.62c-11.66-37.53-26.57-73.94-38.13-111.54-16.22-52.72-10.1-102.32,17.07-149.85,5.71-10,10-21,20.92-26.84.08,2.26.15,4.51.23,6.77-10.23,17.23-20.39,34.39-27.76,53.26-15.5,39.64-14.56,79-1.43,118.83,6.12,18.57,11.45,37.39,17.67,55.92.94,1.16,1.43-1.31.54-.22-.34.42-.64.27-.93-.42-1.92-4.58-3.49-9.29-3.62-14.26-.78-30-.66-59.94,7.16-89.2C1419.47,2051.33,1419,2044.14,1425.9,2040.85Z"/><path class="cls-1" d="M1064.84,1966.4c-29.42,1.58-58.47,2.55-87.4,4.88-22.15,1.78-44.31,2.73-66.42,1.68-48.24-2.31-95.32-10.9-140.95-27.36-48.83-17.61-94.33-41.59-137.55-70.1a350.93,350.93,0,0,1-29.54-22c15.67,2,31.26.72,46.76,1.52,24,1.22,46.7-5,69.46-10.67,17.73-4.41,35.54-8.33,53.63-10.41,22-2.53,42.48,4.6,62.29,13,32.85,13.94,61.2,35.31,90.32,55.5,40.23,27.86,82,52.77,131.64,60.5C1059.7,1963.31,1062.59,1963.66,1064.84,1966.4Z"/><path class="cls-1" d="M1117.56,2303.43c-13.64,6.71-22.25,19.07-32.27,29.63a210.34,210.34,0,0,0-36.5,52.56c-13.79,28.16-24.14,57.32-28.83,88.54-2.89,19.19-.93,38.42-2.41,60.34-8.13-23.28-14.16-44.45-18.15-66-3.25-17.53-8.68-34.85-8.69-52.83,0-23.54,6.62-45.7,16.41-66.93,4.27-9.25,8.59-18.51,13.61-27.35,8-14,9.6-29.72,9.52-44.84-.13-24.31,11.07-40.92,28.81-55.51,15.19-12.48,29.77-25.81,43.74-39.65a1435.22,1435.22,0,0,1,116.63-103.55c2.69-2.14,5.73-5.77,9-3.56,2.91,2,.17,5.78-.53,8.78-6.63,28.32-12,57-20.07,84.91-11.43,39.29-30.52,74.53-60.69,103.25-10.53,10-22.9,18.65-29.65,32.26Z"/><path class="cls-1" d="M600.94,1859.77c15.9,10.22,31.46,20.72,47.27,30.81a605,605,0,0,0,127.84,61.61c36.3,12.6,73.65,19.76,111.89,23.42,38.73,3.7,77.13.88,115.71-1.95,29.8-2.18,59.72-3.52,89.66-2.6,4.51.14,9.12.76,14.23-2.27-2.35,6.81-8,6.46-11.91,8.15-40.19,17.5-78.63,39.13-120.57,52.51-49.95,15.94-100.47,19.45-151.34,4.21-29.57-8.85-59-18.24-88.51-27.23a192.94,192.94,0,0,0-22.41-5.67c-21.95-3.9-36.18-16.64-45.5-36.57-13.15-28.11-32.71-52.22-50.15-77.64C611.28,1878,604.83,1869.82,600.94,1859.77Z"/><path class="cls-1" d="M1122.42,1874.83c-14.68-4.6-25.3-14.5-36.44-23.4-27.09-21.65-49.42-47.92-71.24-74.68-8-9.8-17-18.8-25.22-28.41-16.06-18.73-21.57-41.65-24-65.26-3.1-30.1-4.61-60.32,1.84-90.28a84.08,84.08,0,0,1,12.51-30.46c.19,9.79.26,17.22,2.59,24.45,4.74,14.75,15.39,23.78,29,28.39,17,5.74,28.77,16.06,37.22,31.67a724.89,724.89,0,0,1,36.52,78.2,128,128,0,0,1,9,43C1095.48,1805.71,1100.42,1842.37,1122.42,1874.83Z"/><path class="cls-1" d="M977.67,1552.81c-18.16,35-21.21,72-17.32,110.57,1.59,15.71,2.18,31.39,5.36,47,4.21,20.68,16,36.89,29.27,51.69,23.22,25.94,44.14,54,70.28,77.26,11.48,10.2,23.4,19.9,35.55,30.18-33.73-5.76-68.14-7.69-97.1-28.58-26.65-19.22-46.29-44.72-64.31-71.69-9.38-14-18.66-28.31-24.45-44.1-8.87-24.16-7.1-47.91,8.86-69.08,13.67-18.13,18.84-39.77,26.56-60.41C956.39,1579.55,963.43,1564,977.67,1552.81Z"/><path class="cls-1" d="M1167.36,1632.38c12,22.76,25.92,43.68,40.55,64.28,12.91,18.2,26.25,36.42,31.37,58.87.47,2,1.17,4.27.77,6.22-4.65,23,.27,45.2,6.49,66.87-2.22,2.2-4,.88-5.11,0-11.86-9.31-23.52-18.87-35.38-28.17-19.3-15.13-25.19-34.51-21.14-58.52,3.42-20.24-2.77-39.71-9.3-58.72A145.15,145.15,0,0,1,1167.36,1632.38Z"/><path class="cls-17" d="M1254.12,1846.27c-23,2.23-40.22-6.13-54.72-22.57a247.71,247.71,0,0,0-30.45-29.13c-12.22-9.84-11.73-25.57-15.33-39.26-7.83-29.8-4.76-59.1,4.89-87.93,2.2-6.56.52-13.3,1.92-20.42,5.14,3.45,3.61,9,4.59,13.26,5.23,22.53,13.48,44.29,16.92,67.26.36,2.38,1.26,5.2.4,7.17-6.7,15.39-1.94,30.49,1.21,45.44,3,14.35,15.84,21,26,29.35,11.65,9.51,24.17,18,36.15,27.07C1248.92,1839,1252.63,1841.22,1254.12,1846.27Z"/><path class="cls-17" d="M915,2193.88c-1.42-9.16,5.47-15,9.23-21.53,11.65-20.34,23.22-40.74,35.85-60.54,13.28-20.78,31-33.73,55.36-38a333.13,333.13,0,0,1,60.67-5.32c-12.29,10.88-24.13,17.47-35.06,25.34-22.07,15.89-49.52,21.59-71,38.36-20.66,16.14-38.29,35-51.09,58.11C918.13,2191.83,917.58,2193.61,915,2193.88Z"/><path class="cls-8" d="M1077.14,2076.59c-16.87,24.81-32.41,49.56-55.82,68.67-16.76,13.68-36.19,18.21-56,21.95-13.26,2.51-24.92,6.8-34.83,16.18,4.1-11.79,12.47-20.84,20.7-29.24,14.52-14.84,31-27.65,50.78-35.08,25.65-9.6,47.73-25.14,69.45-41.31C1072.72,2076.77,1073.76,2075.08,1077.14,2076.59Z"/><path class="cls-1" d="M463.4,1787.94c-7.28-24.41-19.67-42.7-35.52-59.25-16.46-17.17-33.81-33.91-42.2-57.21a65.4,65.4,0,0,1-3.37-32c3.05-22.68-7.81-40.72-22.61-56.61-9.82-10.54-20.46-20.33-30.24-30.9-20.25-21.89-19.38-47.47-12.2-74,5.73-21.24,19-38.12,31.47-55.55,7.21-10.1,14.2-20.36,21.61-31,3.38,4.4,2.18,8.42,2.11,12.06-.52,26.77.62,53.45,5.27,79.83,5.94,33.65,22.31,62.38,42.16,89.74,18.29,25.21,36.76,50.52,46.07,81C479.43,1698.13,480.8,1742,463.4,1787.94Z"/><path class="cls-1" d="M558.59,1302.17c11.7-26.77,11.45-52.09,7.39-78.19-3.71-23.84-6.53-48-2.64-72.2,4.26-26.45,22.39-43,43-57.41,24.23-16.9,48.63-33.58,66.65-57.59,15.27-20.36,25.18-42.87,26.11-71.76,6,13.62,7.76,25.57,9.73,37.21,6.91,40.94-3.68,79.5-18.71,116.85-8.18,20.33-14,41.13-18.62,62.36a107.14,107.14,0,0,1-24.63,48.2c-22.76,26-49.17,48-77.9,67.24C566.34,1298.61,563.36,1299.76,558.59,1302.17Z"/><path class="cls-6" d="M474.2,1507.49c1.39,10.92,9.67,17.89,16.25,25.08,11.27,12.31,12.84,26.18,10.55,41.21-2.21,14.5-2,28.43,2.58,42.64,12.25,38.21,13.12,75.74-7.29,112.2-6.13,10.94-9.25,23.56-15.62,34.57-1.51,2.6-1.81,6.19-6.22,7.67,3.92-17.9,6.34-35.44,6.22-53.31-.32-47.38-16.2-89.3-43.41-127.51-19.74-27.74-40.95-54.53-50.82-88.17-6.41-21.84-7.5-44.2-9.28-66.5-1.25-15.63.27-31.42-1.8-48,6.08,1.25,8.82,5.64,11.67,9.09,28,33.84,55.42,68.09,79.07,105.19,1.93,3,4,5.85,8.14,5.94Z"/><path class="cls-1" d="M708.43,971c10.68,19.84,15.87,40.85,19.55,62.24,5.26,30.53,11.64,60.67,24.35,89.18,6.94,15.57,3,31.25-2.19,46.28-10.07,28.88-20.53,57.81-37.43,83.48-23.68,36-54,62.84-100,64.56-9.24.35-18-2.6-26.91-4.68-7.51-1.75-14.8-4.42-22.76-3.62-.17-4.76,3.43-5.39,5.93-7,30.69-19.57,59.05-42.13,82.32-70.14,14-16.84,22.61-36.85,26.43-58.89,3.85-22.24,12.29-43.23,20.6-64.08,16.85-42.3,22.41-85.27,9.88-129.7C707.52,976.4,706.27,974.21,708.43,971Z"/><path class="cls-1" d="M266.51,955.37c13.55-3,25.74-8,38-13.2,21.47-9.18,40.32-22.65,59.62-35.27,23.19-15.16,47.11-27.23,75-31.09,20.61-2.86,40.53.44,60.6,3.46,19,2.85,38,6.12,58,9.37C470.47,954.2,373.87,976.88,266.51,955.37Z"/><path class="cls-1" d="M736.19,1480.27c-9.25,7.11-18.69,8.86-27.31,9.49-29.8,2.18-59.64,1.72-89-5.38-15.06-3.65-25.69-14.32-36.65-23.94-25.6-22.46-50.19-46-72.19-72.14-4.23-5-6.92-11.31-10.29-17,1.91-1.74,3.52-1.16,5-.13,18.81,13,40.56,16.77,62.54,19.89,25.93,3.69,52.48,3.24,77.58,12.44,23.26,8.52,40.79,22.65,48.65,46.93C700.78,1469.7,713.34,1480.45,736.19,1480.27Z"/><path class="cls-1" d="M224.21,961.72c34.33-2.56,66.79,1.21,99.1,4.38,56.6,5.56,109.72-6.65,160.87-28.61,25.05-10.75,48.67-25,70.93-41.12,1.37-1,2.49-2.55,5.38-1.22-1.49,8.78-9,14-14.14,19.79-14.48,16.35-27.6,33.37-37.87,52.74-4.6,8.67-13.51,14.25-22.86,16-31.15,5.78-60.61,17.75-91.53,24.18-26.21,5.45-51.64.67-76.76-6.63C285.21,991.89,255.75,976.3,224.21,961.72Z"/><path class="cls-1" d="M129.12,1482.26c2.3-22.78-5.53-41.8-10.46-61.35-6.2-24.59.29-45.61,16.53-64.4,9.67-11.17,19-22.64,25.25-36.23,1.74-3.83,4-7.81,4.29-11.85,1.4-19.7,13.56-32.57,27.24-44.62,1.52-1.34,2.84-3.49,5.25-2.76,2.12.65,1.77,2.85,1.73,4.52-.72,32.21,6,64.36-1.45,96.7-7.75,33.7-20.46,64.68-41.56,92.17A165.53,165.53,0,0,1,129.12,1482.26Z"/><path class="cls-9" d="M502.42,1384.66c27.07,36.36,61.76,64.44,95.57,93.4,13.11,11.23,29.71,11.75,45.5,14.64,19.2,3.51,38.63,2.41,58,2,13.65-.3,26.46-5.39,39.46-9.64-8.44,9.57-19.72,14.49-31.4,18-17.18,5.16-33.81,10.76-49,21-17,11.46-36.32,9.31-54.77,3.55-53.1-16.58-86-52.69-98.78-106.5C504.18,1409.41,504.12,1396.87,502.42,1384.66Z"/><path class="cls-8" d="M154.61,1466.32c20-26.62,34.57-55.51,43.12-87.39,6.77-25.23,9.46-50.78,6.33-77-1.56-13.14-.27-26.63-.27-41.07,6.7,5.13,8.29,12.61,11.7,18.67A200.84,200.84,0,0,1,234.88,1326c6.26,23.32-.92,45.15-9,66.57-9.91,26.13-30.7,43.1-51.77,59.66C167.77,1457.14,161.11,1461.62,154.61,1466.32Z"/><path class="cls-1" d="M262.62,476.9c14.75,12.26,29.45,24.58,44.27,36.76,33.64,27.63,68.66,53.05,112,63.26,26.7,6.28,54,9.23,81.25,11.85,66,6.34,124,30.35,171.08,77.89C688.72,684.31,704.6,703.53,716,729c-14.54-7.84-27.61-13-41.69-15.5-18.94-3.4-38-1.38-56.94-2-17.91-.56-35.81,1-53.77-1.83-22.25-3.5-40.94-13.39-55.78-29.64-23.11-25.3-52.35-29.22-84-27-20.7,1.47-41.41,2.74-62.15-.39-18.79-2.84-33.3-12.85-45.48-26.58-18.6-21-30.53-45.53-36.58-72.82C274,528,269.6,502.51,262.62,476.9Z"/><path class="cls-1" d="M712.11,709.72c-20.1-30-44.2-55.69-73.6-76.36A258.71,258.71,0,0,0,527,588.76c-32.62-4.93-65.64-7.63-98-13.82-44.32-8.47-81.12-32.55-115.17-61.13-16.91-14.19-33.87-28.31-50.39-45,13,0,26.05-.6,39,.13,26.66,1.49,53.31,3.33,79.9,5.72,30.44,2.73,60.83,6,91.18,9.53a134,134,0,0,0,21,1.05c19.11-.82,34.84,6.25,46.05,21.2,14.83,19.76,33.84,33.23,56.16,43.11,17.73,7.86,33.48,19.09,48.48,31.43,18.11,14.91,27.33,35.5,37,55.88C693.49,660.58,704.64,684.39,712.11,709.72Z"/><path class="cls-7" d="M102.46,290.37c-5.95-22.69-18.43-41-33.67-58-12.07-13.48-13.32-31.12-15.65-48.25-3.27-24.13-.4-48.55-4-72.63-1.35-9-2.63-17.91-4.32-29.37,12.56,12.39,17.44,26.58,22.84,40.24,6.33,16,12,32.3,20.53,47.33,1.87,3.31,4.16,7,7.25,8.89,12.69,7.75,16.86,21.17,23.12,33.21,4.51,8.68.23,17.27-1,25.74C115,255.7,107.58,272.6,102.46,290.37Z"/><path class="cls-18" d="M106.05,304.35c-.51-15.27,6.13-28.07,9.75-41.46a402.91,402.91,0,0,0,8.57-40.1c.43-2.69.74-6.08-.47-8.26-7.23-13-10.45-28.3-23.9-37.67-8.88-6.2-12.87-16.66-17-26.32-8-19-15.3-38.28-23.49-59,26.15,26.51,60.61,43.6,70.94,81.87.71,2.63,2.7,4.91,4,7.37,7.32,13.24,11.79,26.49,6.59,42.18-3.38,10.18-4.46,21.32-5.22,32.13C134.45,276.19,126.12,292.83,106.05,304.35Z"/><path class="cls-19" d="M588.36,377.91c-15.43-6.35-29.53-10.05-43.71-13.53-27.28-6.71-53.93-4.6-81,2.77-26.13,7.12-53.38,6.83-80.58,6.88,30.07-19.79,57.05-46,97.54-41.72,9.38,1,17.88,4.07,26.21,7.39,24.48,9.76,48.57,20.46,72.79,30.85A15.86,15.86,0,0,1,588.36,377.91Z"/><path class="cls-20" d="M525,389.77c-11.65,1.2-20.9,9.11-32.65,10.86-24.74,3.68-48.16-1.4-71.54-8-11.37-3.21-22.68-6.69-35.73-12.92,30.24-1.86,58.66-1.31,85.18-9.65,32.8-10.33,63.75-4.64,95.12,4,1.27.35,2.47.95,6.75,2.62-19,.18-35,.81-47.22,13.12Z"/><path class="cls-1" d="M58.43,1706.34c20.16,1,38.84,4.17,57.52,7,76.39,11.75,139.38,48.18,191.21,104.76,10.95,11.95,20.59,25.06,27.63,39.73,14.65,30.53,34.17,58.28,49.84,88.19,9.05,17.27,14.93,35.63,15.41,55.35.08,3.42.7,7.07-2.26,11.11-6.93-7.26-12-15.85-20.52-21.47-18.78-12.44-39.89-16.9-61.56-20-32.73-4.68-63.3-14-85.76-40.41-20.74-24.35-34.26-52.91-48.05-81.45-14.36-29.74-28.53-59.85-53.42-82.86-4.88-4.51-9.91-9.27-15.73-12.29-17.49-9.07-32-21.58-44.26-36.72C65.63,1713.79,60.69,1712.48,58.43,1706.34Z"/><path class="cls-6" d="M56.76,1701.39c9-4.25,18-4.47,26.53-4.83,40.36-1.68,80.78-6,121.11,1.34a224.06,224.06,0,0,1,27.59,6.81c24.77,7.82,50,14.82,73.78,25,23.36,10,39.07,29.88,51.48,51.49a402.72,402.72,0,0,1,53.39,180.33c.73,13.14-2.12,25.86-5.44,38.78-3.77-42.62-28.08-76.15-48.59-111.34-12.73-21.85-22.84-45.22-39-65.1-25-30.73-55.55-54.68-89.1-75.25-40.13-24.6-84.44-36-130.47-42.18C84.6,1704.65,71.13,1703.14,56.76,1701.39Z"/><path class="cls-1" d="M661.52,2416.23c-13.71-9.23-23-19.25-34.43-26.68-18.46-12.05-38-19.73-60.4-18.5-22.75,1.24-41.35-9.45-59.6-21q-54.3-34.36-108.52-68.83c-7.25-4.6-15.43-6.5-23.94-9.75,10.41-1.6,20.77-3.83,31.24-4.65,19.18-1.51,38.13-5.07,57.57-4.31,21.91.85,40.14,9.56,56.24,23.46,19.8,17.1,44.29,23.89,68.23,31.94,19,6.38,35.33,16.38,44.43,34.88C642.2,2372.82,651.06,2393.35,661.52,2416.23Z"/><path class="cls-6" d="M232.93,2123c-9.92-11.09-17.8-19.57-25.32-28.36-23.85-27.87-52.91-50.51-77.14-78.11-31.75-36.18-55-77.31-74.59-120.74-8.94-19.77-16.81-40-24.57-60.43,7.92,6.82,13.05,15.8,18.78,24.25,16,23.59,31.86,47.27,51.54,68,15.57,16.45,36.88,24.22,55.28,36.37,35.11,23.2,66.51,50.12,76.84,93.7C238.66,2078.43,236.62,2099.32,232.93,2123Z"/><path class="cls-1" d="M404.23,2122.67c14.77-11.86,27.37-21.91,44.3-25.76,20.19-4.59,39.85-11.43,59.92-16.56,27.41-7,54.88-6.39,82.36.5,35.2,8.82,68.17,23.92,105.15,36-23.41,7.24-44.12,14.12-65.11,20-22.71,6.39-45.8,10.28-69.64,10.26-24.94,0-47.85-7.82-70.43-16.51C466,2121.08,428.61,2120.17,404.23,2122.67Z"/><path class="cls-1" d="M35.9,1860.79c7.16,16.32,14.12,32.73,21.5,49,25.4,55.82,60.11,105,105.52,146.36a692.31,692.31,0,0,1,52.53,53.5c1.5,1.7,2.82,3.57,5.17,6.56-25.91-8.62-51-14.89-74.26-25.22a212.38,212.38,0,0,1-85.72-68.28c-3.23-4.35-5.42-8.92-5.6-14.5-.74-23.38-7.87-45.58-12.8-68.19C36.61,1914.1,38.12,1887.47,35.9,1860.79Z"/><path class="cls-21" d="M368.51,2267.71c47.08-22.17,95.51-31.66,146.79-17.17,20.94,5.91,42.41,10.05,63.16,16.51,46.64,14.51,70.11,48,75.42,95.51,1.71,15.3,6.81,29.87,11.1,44.6l-2.5.94c-6.23-13.75-13.05-27.27-18.57-41.3-10.73-27.31-28.83-46.18-57.65-54.06-26-7.12-50.14-17.84-71.22-35.37-25-20.76-54.44-22-85-17.51C409.59,2262.89,389,2265.12,368.51,2267.71Z"/><path class="cls-21" d="M690.72,2108.9c-31.91-8.89-61.76-22.57-93.44-30.71-34-8.74-68.07-8.58-102,1.7-18.13,5.49-36.29,10.92-54.92,14.73-8.42,1.73-16,6.61-23.63,11.08,7.21-10,15.3-19.2,26.2-24.62,25.82-12.84,51.62-25.89,78.23-36.91,36-14.92,71.34-10.32,103.92,10.23C649.22,2069.63,667.3,2092.53,690.72,2108.9Z"/><path class="cls-1" d="M979.57,623.25c-17.74-17.2-34.3-32.33-49.79-48.49-19.28-20.11-34.2-43.47-46.16-68.56a335.72,335.72,0,0,1-26.46-79.62c-4-20.15-4.26-40.42-4.35-60.82-.07-17,4-33.37,6.65-49.95,4.1-25.94,4.2-52.46,10.65-78,4.52-17.9,10.24-35.49,26.26-49,1.86,10.38,1.82,19.7,4.25,28.85,4.07,15.3,13.25,26.82,22.81,38.46,12.25,14.91,27.24,27.4,37.78,43.85,9.67,15.07,15.43,31.27,16.68,49.12,2.59,37-6.06,72.46-13.39,108.23-6.23,30.36-9.26,61-1.88,91.89,1.34,5.61,3.89,10.54,6.26,15.6C977.29,582.7,976.33,602.25,979.57,623.25Z"/><path class="cls-1" d="M975.33,627.87c-4.77.62-7.43-1.47-9.83-3.11-36.2-24.73-74.23-47-104.37-79.72-17.26-18.76-28.93-41.43-44.49-61.33-10-12.78-19.95-25.77-22.58-42.31a208.46,208.46,0,0,1,5-89.76c11.3-40.39,26-79.39,47.42-115.58,9.56-16.16,22.35-29.68,37.14-41.62-22.28,33.3-22,71.91-26.4,109.4-2.36,20.17-6.26,40.11-9.1,60.21-2.79,19.77.19,38.8,3.64,57.44,6.45,34.83,16.8,68.81,34.36,100,12.25,21.8,27.13,41.69,43.58,60.52C943.69,598.09,960.23,611.62,975.33,627.87Z"/><path class="cls-1" d="M1076,538c-2.7-27.93,1.77-53.11,1.59-78.43-.09-13.42-1.48-26.69-2.73-39.92-1.4-14.84-9.86-27.71-16-41-12.88-27.64-17.92-56.91-18.65-86.74-.59-24.23,9.72-45.54,24.79-64.46,7.11-8.92,14.41-17.6,24.14-25.9,1.77,17.82,4.19,34,4.8,50.29.84,22.56,6.8,44.28,9.34,66.57,3.59,31.55,5.47,63,1.41,94.48a657.94,657.94,0,0,1-25.29,115.86C1078.6,531.09,1077.69,533.3,1076,538Z"/><path class="cls-1" d="M1094.32,213.74c13.87,24.44,34,43.54,46,67.67,14.11,28.23,20.51,58.87,23.51,90.16,1.55,16.07-8.61,27.71-16.5,40-3.44,5.37-6.36,10.75-8,17-6.83,26.1-23.72,46.81-37.57,69.12-3.8,6.1-6.41,13.21-14.13,17.71C1123.84,415.5,1110.75,314.79,1094.32,213.74Z"/><path class="cls-22" d="M120.18,2475.68C88,2442.83,56.18,2409.8,46,2362.92c-2.75-12.62-3.61-25.72-4.52-38.65-2.75-38.89-6.54-77.89,3.31-116.39,2-8,3.44-16.33,9.73-26-.7,14.08-.44,25.46-2,36.58-3.77,27,2.14,52.57,10.88,77.47,10.37,29.54,20.69,59,25.12,90.12,2.74,19.19,12.31,35.76,20.5,52.87C114.56,2450.5,120.81,2461.89,120.18,2475.68Z"/><path class="cls-1" d="M1390.59,6.65c7-4.86,9.64,1,11.9,5.39,6.9,13.33,13.31,26.93,19.74,40.5a10.28,10.28,0,0,0,3.78,4.83q0,39.14.1,78.26c-9.23,16.89-18.71,33.66-27.59,50.74-5.39,10.36-13.55,17.75-22.71,24.46-29.59,21.67-60.64,40.28-98,47.61.39-1.43.34-2.6.88-3,26.61-20.72,47.89-46.17,65.7-74.62,12.42-19.83,27.33-37.89,36.52-60,8.06-19.39,10.12-39.29,11.48-59.41A256.29,256.29,0,0,0,1390.59,6.65Z"/><path class="cls-1" d="M1425.9,1108.84c-10.25,30.44-15.2,61.92-18.67,93.71-1.81,16.52-3.82,33-6.82,49.59-15.68-34-31.13-67.91-36.94-104.91-3.92-25-10.15-49.38-15.8-73.94-3.66-15.88.57-31.52,1.49-47.18,1.9-32.54,9.14-64.7,7.32-97.54-.75-13.47,1.2-26.53,5.89-41,4.06,28.33,7.07,55.08,17,80.54,5.26,13.5,13.79,24.37,22.9,34.94,9.75,11.34,17.14,24,23.64,37.31C1426.93,1063.19,1426.8,1086,1425.9,1108.84Z"/><path class="cls-1" d="M1426.33,1350.54c-1-.89-2.7-1.59-3-2.7-8.81-28.51-19-57.08-17.42-87.31,1.67-30.79,5.69-61.48,10.93-92,2.43-14.11,3.78-28.4,9.55-41.71Q1426.34,1238.71,1426.33,1350.54Z"/><path class="cls-23" d="M1425.9,2040.85a206.78,206.78,0,0,0-11.77,61.71c-.92,21-2,42.14.48,63.41-4.13-10.67-9.57-21-12.07-32.07-4-17.82-11.32-34.55-14.93-52.6-7.15-35.83-3.72-69.83,11-103,7.23-16.28,13-33.44,27.7-45.16Q1426.09,1987,1425.9,2040.85Z"/><path class="cls-1" d="M993.26,909c5.65-13.77,13.49-26.52,21.14-39.3,15.37-25.72,32.71-50,53.54-71.69,18.61-19.39,41.62-31.26,66.92-38.45,26.68-7.58,50.33-21.5,74.89-33.51a288.18,288.18,0,0,1,97.63-27.87c18-1.9,35.63,2.71,53.54-.32,5.65-.95,11.52,4.29,18.61,8.78-18.09.82-34.24,2.73-49.17,9.73-37.08,17.38-63.21,46.34-83.94,80.67-11.78,19.53-20.87,40.59-35,58.8-18.5,23.77-43.59,32.34-72.26,35.87-21.94,2.69-43.55.06-65.29-.3-26.47-.43-51.85,3.44-75.13,16.94C997.32,909.18,995.93,910.71,993.26,909Z"/><path class="cls-1" d="M987.06,909.55c-1.8-22.39-12.75-39.2-15.91-58.43-4.35-26.42,2.32-50.47,15.38-72.58,18.64-31.54,46.08-54.52,77.08-73.43,23.47-14.31,48.22-26.08,73-37.86,15.44-7.34,30.38-7.26,45.92-1.81,33.23,11.65,68.11,13.15,102.66,16.56,21.26,2.1,42.38,4.84,62.83,11.76-26.42-2.67-52.3.49-78,6.07-27.73,6-53.51,17-78.26,30.61-23.22,12.8-48,21.73-73,30.32-36.67,12.6-61.85,39.24-83.82,69.62C1017.44,854.59,1002.8,880.56,987.06,909.55Z"/><path class="cls-1" d="M969.2,1062.94c-29-12.13-52.94-28.45-75-47.48-21.81-18.85-43.79-37.55-63.81-58.38-5.66-5.89-10.94-12.14-13.53-19.92-13.86-41.62-24.07-83.73-14.63-128,.79-3.72,2.26-7.28,3.42-10.92,1.12.38,2.14.53,2.16.77,2.39,28.45,13.08,40.35,41,46.2,28.77,6,46.19,25.58,57.85,50.85,9.28,20.11,14.1,41.65,18.55,63.38,6.47,31.59,12.42,63.66,33.08,90.15C961.35,1053.43,964.51,1057.18,969.2,1062.94Z"/><path class="cls-1" d="M1086.65,1322c-10.39,17.34-20.77,34.21-41.21,40.23-23.53,6.93-41.67,21.3-58,38.78-14.32,15.32-29.85,29.32-51.74,32.09-18.31,2.32-36.49-1-54.43-4.31-14.71-2.72-29.26-2.56-44-.61C865.35,1365.56,983.82,1315,1086.65,1322Z"/><path class="cls-1" d="M803.09,791c-16.61,41.47-7,82.15,1.86,123.15,5.58,25.73,19.24,45.4,38.69,62.26,26,22.54,50.28,47.14,79.15,66.25,8.43,5.59,17.16,10.72,26.28,16.39-23.14-.2-45.61-.59-67.75-5.32-40.51-8.67-71.53-31.46-95.8-64.34a145.54,145.54,0,0,1-26.92-65.68c-1.61-10.67,1.58-21.21,6.35-30.56,9.73-19,14.95-39.2,18.79-60.07C786.56,817.75,790.91,802.53,803.09,791Z"/><path class="cls-20" d="M1088.69,1316.26c-13.51,1-24.16,2.42-34.83,2.58-41.16.59-81.24,6.51-119.06,23.59A258.56,258.56,0,0,0,867.89,1386c-5.22,4.7-10.18,9.67-16.5,15.68,1-8,5.6-12.62,8.51-17.74,18.86-33.28,38.93-65.58,76-82.08,17.8-7.92,36.36-13.74,55.57-15.74,13.26-1.38,26.22,4,39.09,7.55C1049.76,1299,1068.48,1305.39,1088.69,1316.26Z"/><path class="cls-22" d="M1362.83,869.69c-8.48,23.4-12.14,46.1-11,70.14,1.33,28.08-4.72,55.88-7.15,83.84-2,23.34-6.21,46.57,2.46,69.79,7.15,19.13,9.47,39.64,12.81,59.68,4.4,26.34,14.9,50.44,24.27,75,4.23,11.12,8.43,22.26,12.9,34.07-5.6.46-7.23-3-9.55-5.89-19.41-24.09-31.28-52.47-44.72-79.84-12.41-25.3-26.4-49.66-40.94-73.67-19.08-31.49-17.4-62.69-1.44-94.2,9.36-18.48,19.51-36.56,29.4-54.76a81.34,81.34,0,0,0,9.74-39.48c0-14.44,4.33-27.63,13.62-39C1355.48,872.69,1357.71,870,1362.83,869.69Z"/></svg>