<svg id="Layer_1" data-name="Layer 1" xmlns="http://www.w3.org/2000/svg" viewBox="0 0 708.14 685.06"><path d="M1230.05,541.53c-.12-40.95-7.59-79.11-22.83-115.72-4-9.49-3.13-18.35,4-26,6.74-7.13,15.17-8.75,24.32-5.67,6.48,2.19,10.84,6.83,13.49,13.2,21.62,52.05,30.23,106.14,25.2,162.3-7.31,81.58-39.64,151.89-96.87,210.33-52.21,53.3-115.48,86.49-189.28,97.94-98.23,15.24-187.65-7.17-266-68.37-72-56.21-115.61-130.39-127.75-221C578.87,473.05,613.51,373.31,697.13,292c57.17-55.58,126.72-86.32,206.28-93.17,79.13-6.8,152,12,218.66,55.24,8.36,5.43,13.5,12.56,12.52,22.75-1.68,17.61-20.54,26.67-35.44,16.91-20.72-13.56-42.31-25.51-65.85-33.19C922.62,224.46,822.18,243.33,734.4,320c-55.93,48.86-88.2,111.84-95.91,185.71-10.85,103.9,23.47,191.56,102.43,260,61.85,53.66,135.16,77.34,216.61,69.76,108.55-10.11,188.7-65.14,240.14-161.11C1220,632.72,1229.77,587.48,1230.05,541.53Z" transform="translate(-590.76 -197.51)"/><path d="M901.78,751c-6.16-10.61-11.84-20.94-18-31-28.15-45.52-62.19-86.51-97.82-126.23-21.69-24.18-43.71-48.07-65.5-72.16a102.28,102.28,0,0,1-9-11.35c-7.36-10.86-7.71-22.09-.81-33.32a61.62,61.62,0,0,1,7.11-9.62,146.49,146.49,0,0,1,35.49-28.14c10.94-6.23,21.83-6.33,32.62.44,22.13,13.88,40.95,31.56,56.91,52,18.65,23.88,36.25,48.58,54.31,72.92,2.15,2.9,4.35,5.77,6.93,9.17,1.69-2.43,3-4.28,4.28-6.16,31.08-45.78,63.57-90.51,100.28-132,31-35.06,64.53-67.33,103.92-93.07,53.81-35.17,112.71-51,176.93-46.74,2.65.17,5.31.29,9.49.51-2.37,1-3.42,1.54-4.52,2-26.49,10.09-49.45,26-71.25,43.67-40.38,32.79-75.78,70.58-109.56,110C1058.61,516,1008.85,584,962.49,654.42c-19.86,30.19-38.52,61.15-57.72,91.77C903.81,747.71,902.87,749.25,901.78,751Z" transform="translate(-590.76 -197.51)"/></svg>