<svg id="Layer_1" data-name="Layer 1" xmlns="http://www.w3.org/2000/svg" viewBox="0 0 945.75 553.86"><path d="M718.2,719.08c-15-27.69-29.82-55.45-45-83.05-30.8-56.12-65.71-109.7-101.59-162.67-4.18-6.17-9.84-9-17.31-10.21-25.52-4.11-37.68-23.59-32.26-49.59,4.79-23,27.21-31.16,49.4-27.36,21.46,3.67,34,31.56,23.7,53.65-6,13-4.12,21.11,4.79,31.41,12.62,14.59,24.6,29.86,39,42.61,20.42,18.11,41.77,35.22,67.58,45.67,7.93,3.22,12.75,2.57,16.57-5.94,17.41-38.78,24.36-79.74,26.86-121.77.63-10.53-3.34-16.4-13.34-20.45-21.27-8.62-31.06-32.43-22.35-51.57,9.24-20.29,34-30.15,52.45-20.88,22.27,11.21,30.31,34.43,18,55.88-4.87,8.5-5,14.59.92,22.09,27.42,34.47,59.45,64.17,93.23,92.23,8.23,6.84,13.66,5.4,19.23-2C915.56,484,932.73,460.88,946,434.62c11.54-22.77,21.11-46.15,31.08-69.5,4.48-10.47,2.33-17.17-6.66-24.18-19.23-15-22-43.19-6.87-60.06,15.74-17.57,42.11-17.81,60.44-.54,14.54,13.69,12.19,43.71-4.47,57.12-14.84,12-14.84,12-8.31,30.42,14.3,40.49,34.6,77.89,58.35,113.54,6.68,10,16.13,17.43,24.08,26.25,5.34,5.92,10.61,1.71,15.23-1.65,19.92-14.49,38.18-30.95,55.54-48.34,10.12-10.13,19.2-21.28,29-31.75,9.92-10.62,15.07-20.71,7.19-36.13-9.62-18.83-1.69-39.47,16-50.08a38.6,38.6,0,0,1,49.83,9.13c12.38,15.32,11.59,36.8-1.82,51.9-3.63,4.08-7.8,7.54-13.09,8.8-11,2.62-13.51,9.88-13.42,20.17a315.57,315.57,0,0,0,23.73,117.42c5.87,14.39,9.33,15.76,23.3,8.94,36.68-17.92,66.47-44.47,92.86-75.16,2.41-2.8,4.32-6.07,7-8.61,9.91-9.55,14.52-18.48,6.76-33.17-8.79-16.64-2.37-37.58,10.31-46.74a42,42,0,0,1,51.35.94c12.65,9.87,14.47,23.4,12.58,37.68-2,15.34-11.81,27.24-26.17,29.36-19.22,2.84-27.65,15.82-36.64,29.38-30.34,45.81-59.47,92.4-86.6,140.19-15.76,27.74-30.25,56.21-45.34,84.33a7.42,7.42,0,0,1-5.32,4.14c4.86-15.76,9.2-31.71,14.7-47.24,9.85-27.83,21-55.17,33.15-82.1,1.6-3.54,4.75-8,.74-11.26-3.25-2.61-6.93.94-10.14,2.45C1241,610,1179,606.71,1119.94,570c-33-20.52-59.53-48.59-80.57-81.72a461.39,461.39,0,0,1-40.31-80c-1.15-2.95-1.7-7.12-5.92-6.72-3.86.36-4.5,4.47-5.53,7.45a351.73,351.73,0,0,1-42.53,84.39c-28.56,41.67-64.13,75.39-111.73,94.77-48.32,19.68-96.14,16.78-143.6-3-2.27-1-4.41-2.29-6.74-3-3.71-1.14-7.42-6.12-11.07-2.73s.17,7.67,1.72,11.26c14.94,34.65,29.45,69.47,40.76,105.53,2.3,7.31,4.3,14.72,6.44,22.09Zm55.48-146.24c27-.67,51.46-9.05,73.87-23.86,12-7.94,12.34-11,1.15-19.63-19.46-15-38.32-30.69-56.2-47.55-2.36-2.23-4.53-5.35-8.26-4.27-4.37,1.26-4.58,5.6-4.93,9.11-2.44,24.26-9.66,47.27-17.49,70.19C757.3,570.09,760,573.22,773.68,572.84Zm436.15-1.34c3.28,0,6.56.13,9.83,0,7.11-.32,11-2.72,7.59-10.81-9.89-23.54-15.66-48.15-19.08-73.44-1.59-11.79-6.46-13.33-15.12-5.23-17.68,16.56-36.69,31.53-55.41,46.84-9.6,7.85-9.86,12.14,1,18.3C1160.71,559.72,1183.24,571.61,1209.83,571.5Z" transform="translate(-520.8 -267.54)"/><path d="M1262.73,764.87c-.81,8.06-6.92,12-13.21,15.8-25.5,15.31-54.07,21.22-82.74,26.5-53,9.75-106.68,13.7-160.33,14.17-55.29.47-110.81-1.5-165.55-10.18-29.83-4.72-59.93-10-88.07-22.18-9.46-4.11-18.85-8.26-25.34-16.74-1.71-2.23-4.06-5-2.23-7.73,2-2.91,5.15-1.42,7.8-.26C786.68,787.56,844,792.57,901.2,797a1194.32,1194.32,0,0,0,190.55-.38c55.89-4.61,112.09-9.57,164.66-32.12C1258.25,763.72,1260.19,762.76,1262.73,764.87Z" transform="translate(-520.8 -267.54)"/></svg>