<svg id="Layer_1" data-name="Layer 1" xmlns="http://www.w3.org/2000/svg" viewBox="0 0 428.18 309.99"><defs><style>.cls-1{fill:#f2f2f1;}.cls-2{fill:#f1f1f0;}.cls-3{fill:#d0d0cf;}.cls-4{fill:#e6e6e5;}.cls-5{fill:#c9c9c9;}.cls-6{fill:#a8a8a8;}</style></defs><path d="M628.56,232.12c13.57-10,26.72-20.62,37.13-34.2,6.2-8.09,12.85-16.59,8.32-27s-15.78-11.16-25.62-12.14c-18-1.79-35.73,1-53.33,4.34-5.81,1.1-9.71.33-13.62-4.54-7.28-9.06-16.3-16.5-25.82-23.12-69-48-156.72-38.14-214.38,24-3.59,3.87-6.81,4.85-12.05,3.83-14-2.72-28.07-4.9-42.38-4.62-4.31,0-8.67-.46-12.91.1-9.89,1.3-20.87,2.24-25.29,12.81-4.28,10.26,3,18.34,8.65,26,10.95,14.84,25.55,25.84,40.2,36.65,4.36,3.22,6.49,6.11,5.67,12.17a108.52,108.52,0,0,0,1.18,36.6c1.1,5.32,0,9-4.68,12.67-11.44,9-22.15,18.94-30.19,31.33-10.57,16.28-5.81,27.55,13.24,31.82,15.89,3.56,31.72,1.58,47.43-.71,5.83-.85,9.16.76,12.74,4.84a145.1,145.1,0,0,0,43.81,33.77C453.12,430.49,529,417.21,580.43,363c3.66-3.85,6.79-5.74,12.66-4.86,15,2.24,30.19,4.16,45.46,1,21.14-4.35,26-16,13.88-34-7.3-10.84-16.76-19.7-26.89-27.7-5.53-4.36-7.81-8.35-6.14-15.73a88.11,88.11,0,0,0,1-32.65C619.17,240.86,622.45,236.62,628.56,232.12ZM331.47,259.39c.36-1.34,3-.7,4.34.27,4.18,3,9.53,4.21,12.76,8.56l.31-.18-.14.3c11.86,4.24,22.14,11.56,33.36,17a36,36,0,0,1,12.36,6.26c-6.65,4.83-9.67-2.26-14.22-3.08-3.68,2.13-7.6,3.94-11,6.45-8,5.92-10.8,5.62-14.07-3.85-2.57-7.43-10.89-13.46-6.42-22.82l-.05,0,0,0a.64.64,0,0,0-.1-.13,56.66,56.66,0,0,0-7.19,4.37c-2.89,2.31-5.31,5.25-8.76.76S330.23,264,331.47,259.39Zm-56-64.55c-4.48-9.4-1.42-17.13,8.49-20.75,13.48-4.92,27.54-3,41.38-2,5.63.41,2.69,3.87,1.2,6.27-9.47,15.15-17.05,31.11-20.64,49.74C292.66,218.79,282.05,208.6,275.48,194.84Zm26.36,150.34c-11.26-3.71-14.59-11.74-9.54-22.5,2.71-5.75,8.36-12.58,15.89-19.09A182.68,182.68,0,0,0,330,347.33C319.12,348.7,310.37,348,301.84,345.18Zm46.65.61c-4.37.78-6.76-1.23-9-4.48-11.31-16.56-19.57-34.4-23-54.29-3.13-7.79-3.21-16-3.56-24.21-.08-1.81.34-3.49,2.68-2.19.56.31.55,1.66.81,2.53,3,14.33,15.18,19,26.43,23.9a16.37,16.37,0,0,1,8.89,8.13c4.26,8,8.77,9.57,17.73,6.79,4.22,7.72-4.21,13.39-3.45,20.16.8,6.95,6.71,11.63,11.1,17.52C367.3,343.11,357.83,344.13,348.49,345.79Zm2.39,9.44c10.57-2.66,20-5.81,29.72-7.25a18.47,18.47,0,0,1,19.53,9.94c6.32,13,10.53,27,19.62,38.94C392.6,390,370.09,376.26,350.88,355.23Zm199.5,8.48C538.08,391.56,512.49,396.83,487,402c-16.67,3.4-33.65,2.94-50.47.12-4.61-.77-10.63.19-5.09-8.43,3.15-4.9,8-9.46,9.52-14.3,3.36-10.45,9.54-16.12,19.38-19.43,2.27-.77,1.48-4.19,1.31-6.4-.48-6.37.65-10.95,7.35-14.4,7.51-3.88-1.33-7.95-1.46-12.15-3-.85-6.16-1.39-7.68-5.23,4.42-2.15,7.35.21,10.27,2.6,24.67,8.68,49.4,17.13,74.65,24C554.55,351,554.66,354,550.38,363.71Zm-116.44-52c6.86-.7,6.86-.7,17.82,5.45C443.07,319.71,438.6,316.13,433.94,311.69Zm123.52,31.15C529.12,336.25,501,329,472,317c16.06-7.17,30.23-13.35,44.25-19.85,3.23-1.5,3.89.5,5.3,2.31,8.45,10.94,18,13.57,30.26,8.51,3.12-1.28,5.86-4.17,9.68-.39,3.66,3.63.48,6-.59,8.76-1,2.5-2.61,4.88,0,7.2,4.49,4,2.43,9.25,2.94,14C564.42,342.59,562.23,344,557.46,342.84Zm32.48-102.19c-7.78,6.65-11.93.82-15.67-4.91-6.78-10.39-8.95-11.08-19.3-5-3.39,2-3.4,2-13.73.82l0,0c-3,6.1-6.53,13.93-11.94,16.4-8.32,3.8-9.55,11-9.76,16.72-.3,8.78-6.72,15.53-5.92,24.26.27,2.91-2.9,3.2-4.89,4.1-11.78,5.28-23.76,10.16-35.34,15.83-8.07,3.95-15.31,3.67-23.5.12-31.89-13.87-63.57-28.13-93.38-46.18-6.82-3.17-13.44-6.66-20.08-12.37,6.73-2.62,11.59-2.27,16.2,2.79,2.09,2.29,3.72,7.33,8.42,4.44s1.53-6.16.05-9.4c-1.17-2.55-3.22-5.54,1.25-7.23,4.86-4.95,8.47-11,12.81-16.15,6.29-7.52,14.23-14.19,24.68-16.54,2.9-.66,7.65-.72,8.09-4.34.48-3.88-4.39-4.07-7-5.75,4.49-8.39,14.16-2.33,20.47-7.43a15.44,15.44,0,0,0,4.6-5.95c1.19-2.68-1.68-4-3.83-4.76-4.42-1.48-7.66-4.3-8.93-8.62-2.43-8.24-8.89,3-11.83-2.73-2.07-4-3-9.76-10-7.88-4.77,1.27-10.77,1.3-5.9,8.72,1.49,2.26.66,3.6-.93,5.08a46.59,46.59,0,0,0-5.67,5.56c-3.31,4.35-6.68,18.1-8.76-.5-.37-3.23-4.48-2.17-6.47-3.83-4.9-4.08-7.32-8.41-.25-12.36,6.19-3.45,11.22-9.72,19.52-8.56,2.73.38,3.83-1.35,4.89-3.82,1.72-4,6.25-4.43,9.78-6,2.27-1,3.6,1,5,2.34a1.75,1.75,0,0,1-.55,3.12c-4.6,1.94-3.93,3.85-.72,6.84s7.18,5.65,10.13,1.73c3.16-4.19,18.07-8,2.41-15.5,2.6-13.88-8.6-9.69-18.51-12l24.28-8.82c2.68,7.57,10.12,2.9,14.67,5.7,5,3.11,3.58,6.71,1.45,11-3.32,6.69,1.35,19.19,7.36,23.23,7.1,4.78,11.13,1.53,13.94-4.64,2.72-6,6.12-8.74,13.41-8.95s15.55-2.45,14.21-13.41c-.39-3.25,2.48-5.2,4.08-7.36a8.91,8.91,0,0,0-.94-2c-2.09-2.35-8.62-1.22-6.64-6.25,1.7-4.31,6.44-1.66,9.83-1,13.4,2.57,25.9,7.66,38.52,12.77,9.92,4,12.81,11.87,15.94,20.37.82,2.23-.06,3.65-1.19,5.41-4,6.23-.51,10.46,4.47,13.64,6,3.8,6.16,7.6.42,11.34a11.19,11.19,0,0,0-4.11,3.94c-3.12,5.6-9.62,10.51-.1,17,4.15,2.82,2.73,7.31-3.6,7.12-6.58-.19-10.85,2.24-11.25,9.4-.24,4.11.41,7.34,5.73,7,3.11-.22,7.31.5,5.43,4.37,10.51-3.45,12.33-11,14-18.4.72-3.16,2.65-2.22,4.24-2.31,8-.41,13,5.68,19.2,9.27a2.7,2.7,0,0,1,.77,2.52c-2.05,2.87-4.4,6.56.36,7.88s3.77-5.13,7.24-7.66c3.09,4.89,4.77,10.08,11.15,11,2,.28,4.06,3.94,2.81,6.59s-3.76,2.18-5.84.37C593.45,239.24,591.8,239.06,589.94,240.65ZM620.14,308c7.11,8.21,16.32,16.78,11.65,28.4-4.81,12-17.88,10.18-28,11.85-3.16-.94-6.91,1.49-8.52-1.74-1.27-2.55,1.66-4.74,3.05-6.83a117.42,117.42,0,0,0,14.25-30.23C614.63,302.85,616.8,304.12,620.14,308Zm-3.81-84.64C612,207,605.68,191.45,596,177.39c-2.5-3.65-.84-5.4,3.2-5.57,5.29-.23,10.57-.5,14.13-.67,10.31.09,19-.33,27,3.51,7.71,3.67,11,9.66,8.09,17.82-5.12,14.27-16.43,23.68-27.45,33.18C618,228.27,616.92,225.52,616.33,223.34Z" transform="translate(-247.32 -105.22)"/><path class="cls-1" d="M541.22,231.54h0v0Z" transform="translate(-247.32 -105.22)"/><path class="cls-2" d="M348.74,268.34l.14-.3s-.14.22-.19.28Z" transform="translate(-247.32 -105.22)"/><path class="cls-3" d="M359.32,259.84c5.11-2.13,6.89-5.52,3.73-10.68-1.55-2.52-3-5.19-.72-8.1-4.47,1.69-2.42,4.68-1.25,7.23,1.48,3.24,4.52,6.59-.05,9.4s-6.33-2.15-8.42-4.44c-4.61-5.06-9.47-5.41-16.2-2.79,6.64,5.71,13.26,9.2,20.08,12.37C356.08,260.54,357.82,260.47,359.32,259.84Z" transform="translate(-247.32 -105.22)"/><path class="cls-3" d="M363,245.88c-.82-1.18-.44-3.19-.62-4.82-2.24,2.91-.83,5.58.72,8.1,3.16,5.16,1.38,8.55-3.73,10.68-1.5.63-3.24.7-2.83,3C364.91,259.58,369.11,254.81,363,245.88Z" transform="translate(-247.32 -105.22)"/><path class="cls-4" d="M348.69,268.32h0l.19-.28-.31.18a.64.64,0,0,1,.1.13Z" transform="translate(-247.32 -105.22)"/><path class="cls-4" d="M348.69,268.32c.05-.06.19-.28.19-.28l-.19.28Z" transform="translate(-247.32 -105.22)"/><path class="cls-5" d="M382.1,285.38l-1.86,3.18C381.71,288,382.62,287.1,382.1,285.38Z" transform="translate(-247.32 -105.22)"/><path class="cls-6" d="M467.55,327l2.59-2.63C467.9,323.91,467.2,325,467.55,327Z" transform="translate(-247.32 -105.22)"/></svg>