<svg id="Layer_1" data-name="Layer 1" xmlns="http://www.w3.org/2000/svg" viewBox="0 0 595.28 841.89"><defs><style>.cls-1{fill:#fff;}</style></defs><path d="M255.88,535c-13,1.41-21.4-8-19.9-20.13-5.85.95-11-.38-15.27-4.59s-5.2-9.39-4.41-15.18c-8.17.95-14.61-1.47-18.24-8.65-4.61-9.13-.91-16.42,6.43-22.58-11.34-13-16.69-27.85-15.27-44.85,1.24-14.8,7.45-27.34,18.18-37.61a58.75,58.75,0,0,1,79.47-1c5.39-3.27,10.41-7,16-9.57,35.76-16.69,78,7.2,82.3,46.39,1.87,16.91-2.76,31.86-13.66,44.86-1.15,1.37-1.2,2.21-.33,3.79a15.38,15.38,0,0,1-.66,16.82c-3.56,5.37-8.74,7.78-15.21,7.28-.63-.05-1.27-.06-2.18-.1.91,5.81-.34,10.93-4.38,15.14s-9.29,5.45-15.39,4.68c.83,8.26-1.63,14.88-9.27,18.51s-14.17,1.33-20.41-4.83c.06,8.51-6,12.63-10.73,17.58-2.69,2.8-5.51,5.49-8.25,8.24-5.78,5.81-12.72,7.31-19.47,4.18s-10-9.45-9.22-17.62A5.11,5.11,0,0,0,255.88,535Zm27.84-28.09c.08.06.15.15.23.16a5.69,5.69,0,0,0,1.09,0c6.09-.66,11,1.54,15.14,5.95,2.72,2.91,5.6,5.66,8.42,8.47a11.4,11.4,0,0,0,9.55,3.55,11.14,11.14,0,0,0,10-7.71c1.75-4.85.4-9.1-3.18-12.68q-21.09-21.14-42.22-42.22c-1.25-1.24-2.53-2.63-1-4.25s3.05-.29,4.24.91c4.53,4.5,9,9.05,13.53,13.57l28.65,28.68c2.92,2.92,6.38,4.44,10.54,3.75a11.08,11.08,0,0,0,9.39-8,11.37,11.37,0,0,0-3-12l-34.57-34.55q-4.32-4.32-8.62-8.66c-1.12-1.14-1.56-2.64-.12-3.55.76-.48,2.27,0,3.36.32.63.19,1.08,1,1.61,1.49q20.71,20.72,41.44,41.41c5,5,12.17,5.15,16.88.48s4.68-12-.39-17.09Q338.84,439.1,313,413.3c-3.9-3.91-7.67-3.92-11.54-.07-5.06,5-10,10.19-15.2,15A30.21,30.21,0,0,1,251,432.47c-5.64-3.2-6.41-8.71-1.84-13.3q8.23-8.25,16.51-16.47c6.1-6,12.23-12,18.6-18.26-15.31-13.11-32.34-17.56-51.1-12.24-21,5.94-34,20.23-38.38,41.55-3.55,17.43,1.15,33.05,13.25,46.88,3.1-3.22,5.76-6.32,8.78-9a15.41,15.41,0,0,1,17.56-2.76c6.42,2.86,9.66,8.09,9.67,15.2v3.42c5.86-.82,11,.45,15.16,4.58s5.23,9.52,4.64,15.28C273.92,485.6,285.18,492.5,283.72,506.88Zm82.89-46.35c1.23-1.44,2.12-2.37,2.9-3.4,9.49-12.41,13.26-26.43,10.58-41.78-3.71-21.26-16.08-35.9-36.55-42.48s-39-2-54.52,13.06c-12.1,11.72-23.84,23.8-35.75,35.72-3.48,3.48-3.19,5.28,1.22,7.38a25.77,25.77,0,0,0,29.5-5c4.62-4.54,9.18-9.15,13.76-13.73,6.21-6.22,12.59-6.26,18.87,0q17.42,17.32,34.75,34.74C356.39,450.09,361.35,455.19,366.61,460.53Zm-106.13,78A11.06,11.06,0,0,0,267,549c4.25,2.08,8.71,1.93,12.21-1.27,5.92-5.43,11.67-11.09,17.06-17,4.28-4.73,3.52-11.69-1.06-16a11.69,11.69,0,0,0-16.09.29c-5.18,5-10.23,10.16-15.31,15.28A11.23,11.23,0,0,0,260.48,538.54Zm-12-66.6c-4.13,0-7,1.09-9.3,3.44-5,5-10,9.89-14.9,14.9-4.74,4.84-4.9,11.91-.5,16.5a11.55,11.55,0,0,0,16.46.56c5.55-5.16,10.88-10.56,16.06-16.09,3.34-3.57,3.78-8,1.86-12.43A10.91,10.91,0,0,0,248.52,471.94Zm-35.33,18.58a10.17,10.17,0,0,0,7.44-3.17c5.2-5.12,10.41-10.25,15.46-15.52a11.67,11.67,0,0,0-16.49-16.52q-8,7.68-15.67,15.71a10.86,10.86,0,0,0-2.08,12.6C203.86,488.16,207.53,490.53,213.19,490.52ZM279.07,502c-.09-3.37-2.25-7.08-6.69-9.09-4.62-2.09-9.16-1.53-12.88,2q-8,7.63-15.69,15.68a11.68,11.68,0,0,0,16.78,16.25c5.11-5,10.09-10,15.11-15.09C278,509.49,279.08,506.74,279.07,502Z"/><path class="cls-1" d="M213.19,490.52c-5.66,0-9.33-2.36-11.34-6.9a10.86,10.86,0,0,1,2.08-12.6q7.66-8,15.67-15.71a11.67,11.67,0,0,1,16.49,16.52c-5.05,5.27-10.26,10.4-15.46,15.52A10.17,10.17,0,0,1,213.19,490.52Z"/></svg>