<svg id="Layer_1" data-name="Layer 1" xmlns="http://www.w3.org/2000/svg" viewBox="0 0 595.28 841.89"><defs><style>.cls-1{fill:#fff;}</style></defs><path d="M370.92,534.92c1.43.44,2.69.84,4,1.19a1.93,1.93,0,0,1,1.52,2.69q-2.92,10.26-5.91,20.52a1.83,1.83,0,0,1-2.47,1.44c-1.37-.43-1.47-1.56-1.12-2.77q2.49-8.64,5-17.28c.11-.4.21-.79.37-1.39l-43-12.36c-.42,1.37-.83,2.66-1.21,4-1.36,4.73-2.7,9.46-4.08,14.18-.17.58-.3,1.34-.72,1.64a2.59,2.59,0,0,1-2,.48,2.67,2.67,0,0,1-1.18-1.7,3.76,3.76,0,0,1,.34-1.78q2.72-9.37,5.45-18.74c.68-2.34,1.23-2.66,3.53-2L366,533.56c.34.1.69.16,1.25.29.65-2,1.38-4,1.9-6a9.71,9.71,0,0,1,5.4-6.48c9.5-4.84,18.89-9.92,28.38-14.78a18.76,18.76,0,0,0,8.67-9c5-10.44,10.28-20.76,15.46-31.12,1.67-3.36.74-6.84-2.3-8.49s-6.44-.5-8.35,2.8q-8,13.78-15.91,27.58l-.68,1.2a1.87,1.87,0,0,1-2.74.87c-1.14-.64-1.2-1.7-.57-2.79l5.38-9.32c3.82-6.62,7.57-13.27,11.45-19.85a9.84,9.84,0,0,1,17.21,9.53c-3.84,7.76-7.72,15.51-11.58,23.26q-2.28,4.62-4.54,9.25a18.62,18.62,0,0,1-8.15,8.54Q391.16,517.06,376,525a5.47,5.47,0,0,0-3.08,3.59C372.37,530.62,371.65,532.65,370.92,534.92Z"/><path d="M311,523.61l2.85-.8a1.84,1.84,0,0,1,2.52,1.34c.82,2.75,1.62,5.5,2.38,8.27a1.8,1.8,0,0,1-1.24,2.45c-1.27.36-2.06-.34-2.42-1.53-.62-2.06-1.21-4.12-1.86-6.39L270.3,539.27c1.35,4.69,2.66,9.2,4,13.72.47,1.62.95,3.24,1.41,4.87s0,2.6-1.17,2.87c-1.39.33-2.09-.45-2.45-1.69-1.95-6.74-3.92-13.48-5.85-20.23-.46-1.63.07-2.35,2-2.91l35.48-10.18c1.17-.33,2.34-.69,3.63-1.07-1.18-4.12-2.34-8.15-3.5-12.18-.28-1-.55-2-.84-3a12.38,12.38,0,0,0-6-7.5q-14.22-7.84-28.44-15.66c-3.93-2.16-8.22-1-10.23,2.66s-.6,7.93,3.41,10.13q7.15,3.92,14.3,7.86l.53.3c1.23.73,1.68,1.8,1.06,2.79a1.87,1.87,0,0,1-2.8.61c-5.34-2.95-10.76-5.76-16-8.88a11,11,0,0,1,10.94-19.15c9.83,5.31,19.61,10.74,29.38,16.17a15.77,15.77,0,0,1,7.62,10C308.13,513.73,309.57,518.59,311,523.61Z"/><path d="M311.17,441.56c-4.59-3.27-6.08-7.61-5.84-12.77.11-2.4,0-4.82,0-7.23a12.75,12.75,0,0,1,11.36-12.8A12.5,12.5,0,0,1,330.56,419c.58,3.4.12,7,.29,10.43a13.22,13.22,0,0,1-5.72,12.14l2.26.73a31.33,31.33,0,0,1,22,28.4c0,.46,0,.93,0,1.39a1.78,1.78,0,0,1-1.78,1.92,1.82,1.82,0,0,1-2-1.87,55.6,55.6,0,0,0-.64-5.64,27.46,27.46,0,0,0-53.48-1.16,37.12,37.12,0,0,0-.82,6.06c-.17,1.87-.74,2.71-2.06,2.65s-1.85-.95-1.79-2.84A31.35,31.35,0,0,1,309.57,442Zm-2-15.35c0,1.59,0,3.17,0,4.76a8.94,8.94,0,0,0,17.87-.14c0-3.17,0-6.35,0-9.52a8.93,8.93,0,0,0-17.86-.17C309.15,422.83,309.2,424.52,309.19,426.21Z"/><path d="M220.59,453.54a9.47,9.47,0,0,1,8.43,4.84c4.57,7.83,9.07,15.71,13.6,23.57,1.08,1.87,2.16,3.73,3.22,5.6.74,1.31.57,2.39-.42,3s-2.14.21-2.9-1.11q-8.15-14.13-16.27-28.25c-1.91-3.33-4.92-4.63-7.95-3.38a6,6,0,0,0-3.06,8.46q6.33,13.15,12.69,26.31c1,2.07,2,4.14,3,6.23a15.24,15.24,0,0,0,7.2,7.3c10.41,5.21,20.78,10.49,31.22,15.65,3.41,1.69,4.56,4.69,5.15,8a2.21,2.21,0,0,1-1.21,1.8c-.64.17-1.5-.41-2.24-.71-.14-.06-.23-.35-.25-.54-.33-3.5-2.74-5-5.62-6.43-9.72-4.75-19.36-9.67-29-14.53a18.28,18.28,0,0,1-8.49-8.59q-8-16.45-15.89-33A9.83,9.83,0,0,1,220.59,453.54Z"/><path d="M267,445.87c-4-3-4.79-7.11-4.57-11.61.11-2.25,0-4.53.23-6.76a11.13,11.13,0,0,1,22.13.73,89.1,89.1,0,0,1,0,9.53,11,11,0,0,1-4.29,8c2.17,1,4.26,1.88,6.34,2.83a9.49,9.49,0,0,1,1.57,1,1.89,1.89,0,1,1-2,3.21c-1.09-.58-2.13-1.24-3.24-1.75-14.68-6.82-32,3.8-32.61,20,0,.26,0,.51,0,.77-.1,1.27-.59,2.2-2,2.2-1.18,0-1.94-.86-1.81-2.35a34.78,34.78,0,0,1,.88-6.22c2.64-9.57,8.78-15.89,18.17-19.08ZM266.37,433h0c0,1.54-.08,3.08,0,4.61a7.25,7.25,0,0,0,7.05,6.61c3.7.09,7.17-2.63,7.43-6.16a68.35,68.35,0,0,0,.05-9.81,7.14,7.14,0,0,0-7.69-6.55,7.36,7.36,0,0,0-6.87,7.31C266.34,430.34,266.37,431.67,266.37,433Z"/><path d="M369.51,445.71a69.75,69.75,0,0,1,7.65,3.79c7.8,5.08,11.85,12.43,12.4,21.68a3.36,3.36,0,0,1-.85,2.44c-1.21,1.09-2.89,0-2.95-1.85a23.45,23.45,0,0,0-1.83-8.66,23.14,23.14,0,0,0-33.57-10.61c-1,.62-2.11,1-2.87,0a3.11,3.11,0,0,1-.17-2.36c.12-.46.88-.82,1.42-1.08,2.28-1.11,4.59-2.16,6.95-3.26-2.11-1.81-3.9-4.05-4-6.92a64.12,64.12,0,0,1,.19-12.55c.8-5.39,6.19-8.82,11.95-8.32a10.91,10.91,0,0,1,9.83,10.15c.14,3.17.1,6.36,0,9.53A10.88,10.88,0,0,1,369.51,445.71Zm.4-12.62c0-1.33,0-2.66,0-4a7.35,7.35,0,0,0-14.7-.34c-.12,2.76-.13,5.53,0,8.29a7.36,7.36,0,1,0,14.71-.42C369.92,435.45,369.91,434.27,369.91,433.09Z"/><path d="M377.72,481.43A11,11,0,0,1,383.37,502c-5.14,3-10.39,5.79-15.61,8.64-1.32.72-2.39.48-2.94-.53s-.18-2.09,1.21-2.86c4.93-2.74,9.89-5.45,14.82-8.19,3.42-1.9,4.93-5.32,3.87-8.64a7.21,7.21,0,0,0-10.56-4.2c-6.72,3.65-13.39,7.37-20.08,11.06-2.74,1.51-5.47,3-8.23,4.52a12.64,12.64,0,0,0-6.43,7.87c-.91,3.05-1.84,6.08-2.77,9.12-.47,1.54-1.34,2.15-2.52,1.78s-1.58-1.36-1.11-2.91c1-3.33,2-6.68,3.05-10a15.92,15.92,0,0,1,7.91-9.23c9.35-5.13,18.67-10.32,28-15.39a40.28,40.28,0,0,1,5.55-2Z"/><path class="cls-1" d="M309.19,426.21c0-1.69,0-3.38,0-5.07a8.93,8.93,0,0,1,17.86.17c0,3.17,0,6.35,0,9.52a8.94,8.94,0,0,1-17.87.14C309.17,429.38,309.19,427.8,309.19,426.21Z"/></svg>