<svg id="Layer_1" data-name="Layer 1" xmlns="http://www.w3.org/2000/svg" viewBox="0 0 595.28 841.89"><path d="M221.53,489l17.05,29.53c3.64-1.1,7-2.41,10.52-3.15,10.77-2.27,21.4-1.14,32,1.43,7.54,1.83,15.15,3.37,22.77,4.87a30.94,30.94,0,0,0,19.7-2.42c12.79-6.08,25.65-12.09,37.19-20.38,7-5,13.55-10.72,20.16-16.27,5.53-4.64,10.88-9.49,16.23-14.33,2-1.84,3.45-4.15,2.37-7s-3.7-4-6.48-3.87a20,20,0,0,0-7.13,1.49,31.89,31.89,0,0,0-6.9,4.34c-7.36,5.79-14.82,11.43-23.3,15.52a21.16,21.16,0,0,1-4.14,1.51,2.19,2.19,0,0,1-2.82-1.62,2.25,2.25,0,0,1,1.46-2.93c7.6-2.69,14-7.45,20.36-12.13,3-2.19,5.8-4.66,8.86-6.76,4.58-3.13,9.61-5,15.3-4.21,5.45.76,9.36,4.37,9.93,9.21a11,11,0,0,1-3.74,9.59c-5.16,4.8-10.39,9.54-15.81,14.05-7.7,6.39-15.29,13-23.48,18.67-6.93,4.81-14.62,8.53-22,12.62-3.88,2.14-7.87,4.06-11.83,6A40.85,40.85,0,0,1,300,526c-8.33-1.82-16.61-3.87-25-5.58-9.43-1.93-18.9-2.23-28.26.51-1.82.53-3.58,1.29-5.14,1.86a35.31,35.31,0,0,1,1.1,5.47,8.19,8.19,0,0,1-4.28,7.63c-3.93,2.37-7.92,4.65-11.92,6.91-4.81,2.7-9.92,1.28-12.69-3.5q-11-19-22-38.07c-3.06-5.32-1.66-10.29,3.68-13.38,3.41-2,6.91-3.8,10.22-5.93,4.92-3.16,10.4-1.75,13.05,2.27a4.86,4.86,0,0,0,.65.51c2.37-1.89,4.92-3.68,7.18-5.78,4.61-4.27,8.88-8.92,13.62-13,11-9.57,23.74-12,37.72-8.13,3.21.9,6.41,1.88,9.52,3.06,6.54,2.48,13.34,2.64,20.2,2.72s13.45.37,20.15.86a15.68,15.68,0,0,1,11.54,6.48,11.87,11.87,0,0,1,1.55,12.56c-1.88,4.33-5.55,6.38-10.06,6.88a38.46,38.46,0,0,1-6.7,0c-9.7-.6-19.36-.63-28.92,1.38a35.08,35.08,0,0,0-11.65,4.26,2.49,2.49,0,0,1-3.5-.51,2.41,2.41,0,0,1,.85-3.54,56.67,56.67,0,0,1,8.38-3.68c8.55-2.67,17.39-3.28,26.28-3.12,3.88.07,7.76.44,11.64.54a16.07,16.07,0,0,0,4.69-.49,6.88,6.88,0,0,0,3.85-10.85,11.9,11.9,0,0,0-9.78-5.2c-6.83-.31-13.67-.77-20.49-.65a64.24,64.24,0,0,1-23.25-4.22c-5.82-2.12-11.8-3.7-18.11-3.29-9.16.6-16.8,4.48-23.26,10.86C234.77,477.8,229.05,484.24,221.53,489Zm16.68,39.59a21.93,21.93,0,0,0-1.12-2.82q-11-19.12-22.05-38.22c-1.49-2.57-3.69-3.14-6.25-1.67-3.7,2.11-7.4,4.25-11.09,6.38-2.71,1.57-3.28,3.75-1.7,6.5q5,8.59,9.92,17.19,6,10.44,12.07,20.88c1.35,2.34,3.52,3.17,5.66,2,4.16-2.3,8.3-4.65,12.33-7.19C237,530.94,237.52,529.53,238.21,528.55Z"/><path d="M354.31,390.45c-2.25,4.51-4.32,8.76-3.78,13.76a5.18,5.18,0,0,0,2.17,3.88,6.3,6.3,0,0,1,2.91,6.77c-.43,2.53,2.62,4.9,5.46,4.34a8.65,8.65,0,0,0,2.81-1.26c3.39-2.19,6.44-1.13,7.34,2.82a21.24,21.24,0,0,1,.6,6.34,18.07,18.07,0,0,0,2.62,10.49c1.5,2.67,3.17,5.24,4.77,7.85a9.66,9.66,0,0,1,.77,1.26,2.32,2.32,0,0,1-.85,3.16,2.17,2.17,0,0,1-3.1-.51c-3.45-5.05-7-10.08-8.57-16.13a21.55,21.55,0,0,1-.46-4.55c-.08-2.06,0-4.13,0-6.59-1.23.57-2,.95-2.75,1.28-5.51,2.36-12.16-.84-13.41-6.45a4.51,4.51,0,0,1-.15-2c.38-1.54-.17-2.48-1.41-3.42-2.85-2.17-3.7-5.31-3.71-8.73,0-5.37,2-10.14,4.54-14.73a4.24,4.24,0,0,1,5.33-2.15,45.53,45.53,0,0,1,6.1,2.74,2.24,2.24,0,0,0,2.64-.27c4.49-3.16,9.25-5.74,15-4.72a38.59,38.59,0,0,1,4.37,1.35c1.28.4,2.57.75,3.95,1.14-.23-3.42-6.72-16.08-10.11-19.73-2.16,1-4.3,2.1-6.48,3.07a9.51,9.51,0,0,1-9-.42,10,10,0,0,0-7.78-.92c-1.9.49-3.76,1.21-5.69,1.56a14.67,14.67,0,0,1-4.85.21c-3.18-.5-4.94-2.69-5.13-5.89a13.62,13.62,0,0,1,2.72-9.42c2.69-3.51,5.64-6.82,8.48-10.21.24-.29.51-.56.93-1a73.32,73.32,0,0,0-24.49-7.67,75.82,75.82,0,0,0-38.8,5c.76.45,1.26.71,1.72,1,3.71,2.58,7.69,4.87,11.06,7.85,4.85,4.28,5.15,9.49,1.47,14.84a24.65,24.65,0,0,1-11.07,8.69c-4.17,1.75-7.87,4.12-10.33,8-1.05,1.66-1.79,3.51-2.87,5.15-2.07,3.17-4.87,5.34-8.8,5.57a8.17,8.17,0,0,1-8.62-5.93c-.43-1.41-1.14-1.8-2.35-1.37-4.58,1.61-9.15,3.23-13.65,5-.62.25-1,1.49-1.19,2.33a76.06,76.06,0,0,0,7.43,56.33c.16.29.33.57.48.86.87,1.59.64,3-.6,3.74s-2.8.25-3.66-1.39c-1.59-3.05-3.3-6.07-4.58-9.26-9.06-22.45-8.91-44.88,1.87-66.6,12.48-25.12,32.93-40.18,60.74-44.46,22.58-3.48,43.24,2,61.23,16.05,19,14.86,29.38,34.62,31.06,58.78a79.26,79.26,0,0,1-6.9,38c-.2.45-.39.91-.62,1.34a2.52,2.52,0,0,1-3.3,1.29,2.57,2.57,0,0,1-1.1-3.38c1.26-3.26,2.7-6.46,3.75-9.79a75,75,0,0,0,1.22-41.12c-.24-1-.7-1.24-1.64-1.44a64.34,64.34,0,0,1-7.41-1.89c-2.61-.86-5.2-1.16-7.67.06s-4.63,2.84-7,4.05a7.13,7.13,0,0,1-3.85.76,15,15,0,0,1-4.08-1.59C356.85,391.79,355.7,391.16,354.31,390.45Zm-108.77-7.53.4.24c2.1-.77,4.16-1.7,6.31-2.26a34.78,34.78,0,0,1,7.06-1.21,4.48,4.48,0,0,1,4.94,3.89c.71,3.6,4.11,4.51,6.75,2.38a20,20,0,0,0,3.46-4.47c.7-1,1.15-2.24,1.84-3.28,3.08-4.63,7.49-7.54,12.54-9.65a19,19,0,0,0,9.11-7.45c1.85-3,1.59-5.21-.82-7.69a16.13,16.13,0,0,0-2.82-2.48c-3.76-2.33-7.59-4.52-11.38-6.79a2.74,2.74,0,0,0-3,.12,76.12,76.12,0,0,0-30.37,30.47C248.07,377.4,246.86,380.19,245.54,382.92Zm129-20.4A74.91,74.91,0,0,0,356,346.45a1.71,1.71,0,0,0-1.61.22c-3.15,3.56-6.35,7.08-9.22,10.86a12,12,0,0,0-1.79,5.16c-.36,2.15.56,2.91,2.77,2.54a31.55,31.55,0,0,0,4.27-1.12c4.94-1.63,9.74-1.74,14.42.92a3.83,3.83,0,0,0,2.82.36C370,364.64,372.09,363.57,374.52,362.52Z"/><path d="M319.65,426.48c-1.5-.2-2.57-.37-3.65-.48-4.93-.5-7.53-2.88-7.51-7.78a10.36,10.36,0,0,0-10-10.64,14,14,0,0,1-8.17-3.45,39.24,39.24,0,0,0-4.71-3.55,4.78,4.78,0,0,0-3.21-.71c-9.23,2.17-14.69,9.18-13.47,17.87.91,6.55,4.61,11.2,10.89,13.13s9.61,6.14,10.54,12.42a85.91,85.91,0,0,1,.66,8.65,2.4,2.4,0,0,1-2.43,2.7c-1.33,0-2.24-1-2.38-2.6-.25-2.93-.4-5.89-.84-8.79-.61-4-2.9-6.4-6.88-7.66a20.78,20.78,0,0,1-11-31.58c3.56-5.29,8.87-8,15-9.13a7.81,7.81,0,0,1,5.87,1.6,30.44,30.44,0,0,1,3.52,2.67,14.67,14.67,0,0,0,8.66,3.85,13.83,13.83,0,0,1,10.08,6.08,14.75,14.75,0,0,1,2.68,8.3c.09,3,.55,3.47,3.5,3.8a25.09,25.09,0,0,1,3.24.5c3.62.88,5.22,4,3.72,7.45-1.68,3.84-4.54,6.8-7.58,9.57a7,7,0,0,0-1.88,3.48,58.11,58.11,0,0,1-3.34,8.65,35.93,35.93,0,0,1-3.73,5.38,2.44,2.44,0,1,1-4-2.78c.77-1.19,1.63-2.33,2.48-3.47a21.6,21.6,0,0,0,4-9.56,11.14,11.14,0,0,1,2.5-4.62c1.83-2.3,4-4.36,5.89-6.59A17.18,17.18,0,0,0,319.65,426.48Z"/><path d="M229.11,529.51c-.67.68-1.25,1.75-2,1.93a3.13,3.13,0,0,1-2.65-.9,68.51,68.51,0,0,1-4-6.89,2.23,2.23,0,0,1,.76-3,2.1,2.1,0,0,1,3.09.35c1.61,2.44,3,5,4.44,7.6a2.07,2.07,0,0,1,.13.63Z"/></svg>